<?xml version="1.0" encoding="UTF-8"?>
<svg width="214px" height="26px" viewBox="0 0 214 26" version="1.1" xmlns="http://www.w3.org/2000/svg" xmlns:xlink="http://www.w3.org/1999/xlink">
    <!-- Generator: Sketch 41 (35326) - http://www.bohemiancoding.com/sketch -->
    <title>CodersTrust</title>
    <desc>Created with Sketch.</desc>
    <defs></defs>
    <g id="Welcome" stroke="none" stroke-width="1" fill="none" fill-rule="evenodd">
        <g id="Home" transform="translate(-65.000000, -60.000000)" fill="#303F9F">
            <g id="menu-white-all-blue" transform="translate(0.000000, -2.000000)">
                <g id="coderstrust-b" transform="translate(65.000000, 62.000000)">
                    <g id="CodersTrust">
                        <g id="new-new">
                            <g id="dashboard_profile_learning_block_expanded@2x">
                                <g id="header">
                                    <path d="M18.0041624,2.64697479 C18.0041624,2.23403361 17.7989976,1.99315126 17.3202799,1.82109244 C15.7473501,1.23609244 13.2169849,0.788739496 10.6866197,0.788739496 C2.68519452,0.788739496 0.086441048,4.64285714 0.086441048,12.2134454 L0.086441048,14.2781513 C0.086441048,21.8487395 2.85616514,25.7028571 10.8575903,25.7028571 C13.5589262,25.7028571 16.0550973,25.3243277 17.6622211,24.6360924 C18.175133,24.4296218 18.3461036,24.257563 18.3461036,23.8102101 L18.3461036,20.2313866 C18.3461036,19.8872689 18.1067447,19.6119748 17.7648035,19.6463866 C16.3970385,19.8528571 14.2770028,19.9905042 12.6356848,19.9905042 C8.90852521,19.9905042 7.60914847,18.4419748 7.60914847,13.8996218 L7.60914847,12.5919748 C7.60914847,8.04962185 8.66916634,6.50109244 12.5331024,6.50109244 C12.5672965,7.67109244 12.704073,8.9787395 12.8408495,9.77021008 C12.9092378,10.1143277 13.1144025,10.3207983 13.4905379,10.3207983 L17.2518916,10.3207983 C17.6622211,10.3207983 17.8331917,10.1831513 17.8673859,9.80462185 C17.9699682,8.63462185 18.0041624,6.67315126 18.0041624,4.57403361 L18.0041624,2.64697479 Z M20.63711,17.0655042 C20.63711,22.7090336 23.7487753,25.5652101 29.4591941,25.5652101 C35.1696129,25.5652101 38.2812783,22.7090336 38.2812783,17.0655042 L38.2812783,15.6890336 C38.2812783,10.0455042 35.1696129,7.18932773 29.4591941,7.18932773 C23.7487753,7.18932773 20.63711,10.0455042 20.63711,15.6890336 L20.63711,17.0655042 Z M31.2372886,16.9966807 C31.2372886,19.4743277 30.8953474,20.2657983 29.4591941,20.2657983 C28.0230409,20.2657983 27.6810996,19.4743277 27.6810996,16.9966807 L27.6810996,15.7578571 C27.6810996,13.3490336 28.0230409,12.4887395 29.4591941,12.4887395 C30.8953474,12.4887395 31.2372886,13.3490336 31.2372886,15.7578571 L31.2372886,16.9966807 Z M60.3706828,20.7819748 C60.3706828,20.4722689 60.1655181,20.2657983 59.8577709,20.2657983 L58.7293648,20.2657983 C57.9770941,20.2657983 57.7377352,19.8872689 57.7377352,18.9581513 L57.7377352,0.754327731 C57.7377352,0.410210084 57.4983763,0.169327731 57.1564351,0.169327731 L48.5737098,0.169327731 C48.2659627,0.169327731 48.0607979,0.375798319 48.0607979,0.685504202 L48.0607979,4.36756303 C48.0607979,4.74609244 48.2659627,4.95256303 48.6079039,5.02138655 C49.189204,5.15903361 49.9414748,5.26226891 50.6937455,5.29668067 L50.6937455,7.67109244 C49.9072807,7.36138655 48.3343509,7.18932773 47.3769154,7.18932773 C42.5555439,7.18932773 40.0593728,10.5272689 40.0593728,15.4481513 L40.0593728,16.6869748 C40.0593728,22.3993277 43.5471735,25.5652101 48.1633803,25.5652101 C49.7705042,25.5652101 51.4118222,25.0490336 52.5060341,24.1887395 C53.5318579,25.0834454 55.0022052,25.5652101 56.7461056,25.5652101 C58.0112882,25.5652101 59.1055002,25.427563 59.8919651,25.0834454 C60.2339063,24.9457983 60.3706828,24.7393277 60.3706828,24.3263866 L60.3706828,20.7819748 Z M49.4285629,20.2657983 C47.5478861,20.2657983 47.1033624,18.6484454 47.1033624,16.4116807 L47.1033624,15.7234454 C47.1033624,13.4178571 47.8214391,12.4887395 49.5653394,12.4887395 C49.9072807,12.4887395 50.3176102,12.5231513 50.6937455,12.5919748 L50.6937455,20.162563 C50.2492219,20.2313866 49.8046983,20.2657983 49.4285629,20.2657983 L49.4285629,20.2657983 Z M78.7671219,14.8287395 C78.7671219,10.079916 75.9973978,7.18932773 70.6973085,7.18932773 C63.9610659,7.18932773 61.6016713,10.7681513 61.6016713,15.6890336 L61.6016713,17.0655042 C61.6016713,22.1928571 63.99526,25.5652101 71.0392497,25.5652101 C73.1250913,25.5652101 74.971574,25.3243277 76.7838626,24.8081513 C77.2283863,24.6705042 77.433551,24.3952101 77.433551,23.9134454 L77.433551,21.1260924 C77.433551,20.747563 77.2283863,20.5755042 76.8522509,20.6443277 C75.4160977,20.8507983 74.2193033,20.9540336 72.6805677,20.9540336 C70.1843966,20.9540336 69.0217963,20.3346218 68.6114669,18.5796218 L74.2876915,18.5796218 C77.3651628,18.5796218 78.7671219,17.3407983 78.7671219,14.8287395 L78.7671219,14.8287395 Z M68.4404962,14.897563 C68.5088845,13.1081513 69.0217963,11.8693277 70.4579496,11.8693277 C71.7231322,11.8693277 72.3044323,12.6952101 72.3044323,13.9340336 C72.3044323,14.5534454 72.0308793,14.897563 71.3469968,14.897563 L68.4404962,14.897563 Z M93.607372,7.18932773 C91.692501,7.18932773 89.8460183,7.67109244 88.4440592,8.53138655 C87.4182354,7.7055042 85.9820822,7.18932773 84.1355994,7.18932773 C82.8704168,7.18932773 81.7762048,7.32697479 80.98974,7.67109244 C80.6477987,7.8087395 80.5110222,8.01521008 80.5110222,8.42815126 L80.5110222,11.972563 C80.5110222,12.2822689 80.716187,12.4887395 81.0239341,12.4887395 L82.1523402,12.4887395 C82.904611,12.4887395 83.1439698,12.8672689 83.1439698,13.7963866 L83.1439698,20.024916 C82.3916991,20.0937395 81.6394283,20.1969748 81.0581282,20.3002101 C80.716187,20.3690336 80.5110222,20.5755042 80.5110222,20.9540336 L80.5110222,24.7737395 C80.5110222,25.0834454 80.716187,25.289916 81.0239341,25.289916 L92.4447717,25.289916 C92.7525189,25.289916 92.9576836,25.0834454 92.9576836,24.7737395 L92.9576836,20.9540336 C92.9576836,20.5755042 92.7525189,20.3690336 92.4105776,20.3002101 C91.7608892,20.1969748 90.9744244,20.0593277 90.1879595,20.024916 L90.1879595,12.7984454 C90.598289,12.7296218 91.1112009,12.6607983 91.5899186,12.6607983 C91.692501,13.5210924 91.7950834,14.3469748 91.8976657,14.8287395 C91.966054,15.1728571 92.1712187,15.3793277 92.5473541,15.3793277 L96.3087078,15.3793277 C96.7190373,15.3793277 96.8900079,15.2416807 96.9242021,14.8631513 C97.0267844,13.4178571 97.0609786,11.387563 97.0609786,9.63256303 L97.0609786,8.2905042 C97.0609786,7.73991597 96.8900079,7.56785714 96.3087078,7.46462185 C95.4538547,7.29256303 94.3938368,7.18932773 93.607372,7.18932773 L93.607372,7.18932773 Z M99.3177908,23.9478571 C99.3177908,24.3263866 99.5571497,24.6016807 99.9674792,24.7393277 C101.642991,25.2555042 104.412715,25.5652101 107.250828,25.5652101 C112.208976,25.5652101 114.807729,23.534916 114.807729,20.162563 C114.807729,17.6160924 113.337382,16.3084454 110.157328,14.9663866 L107.524381,13.8652101 C106.737916,13.5555042 106.36178,13.3146218 106.36178,12.8328571 C106.36178,12.2822689 106.840498,12.0757983 108.208263,12.0757983 L108.276651,12.0757983 L108.481816,13.1081513 C108.550204,13.4522689 108.755369,13.6587395 109.131505,13.6587395 L112.892858,13.6587395 C113.303188,13.6587395 113.474158,13.5210924 113.508353,13.142563 C113.610935,12.0069748 113.645129,10.3552101 113.645129,8.94432773 L113.645129,8.77226891 C113.645129,8.3937395 113.40577,8.11844538 112.995441,7.98079832 C111.456705,7.46462185 108.960534,7.18932773 106.874692,7.18932773 C102.361068,7.18932773 99.3177908,8.70344538 99.3177908,12.6607983 C99.3177908,15.2760924 100.856526,16.7213866 103.592056,17.822563 L106.464363,18.992563 C107.35341,19.3366807 107.76374,19.6119748 107.76374,19.9905042 C107.76374,20.5066807 107.216634,20.6787395 105.814674,20.6787395 L104.652074,20.6787395 C104.61788,20.3346218 104.549492,19.9905042 104.481104,19.6463866 C104.412715,19.3022689 104.207551,19.0957983 103.831415,19.0957983 L100.070062,19.0957983 C99.659732,19.0957983 99.4887614,19.2334454 99.4545673,19.6119748 C99.3519849,20.747563 99.3177908,22.364916 99.3177908,23.7757983 L99.3177908,23.9478571 Z M137.546822,1.88991597 C137.546822,1.3737395 137.307463,1.20168067 136.828746,1.20168067 L117.201318,1.20168067 C116.7226,1.20168067 116.483241,1.3737395 116.483241,1.88991597 L116.483241,4.57403361 C116.483241,6.67315126 116.517435,8.63462185 116.620018,9.80462185 C116.654212,10.1831513 116.825183,10.3207983 117.235512,10.3207983 L120.996866,10.3207983 C121.373001,10.3207983 121.578166,10.1143277 121.646554,9.77021008 C121.749137,9.08197479 121.885913,7.98079832 121.920107,6.91403361 L123.253678,6.91403361 L123.253678,20.024916 C122.501407,20.0937395 121.749137,20.1969748 121.167836,20.3002101 C120.825895,20.3690336 120.62073,20.5755042 120.62073,20.9540336 L120.62073,24.7737395 C120.62073,25.0834454 120.825895,25.289916 121.133642,25.289916 L132.896421,25.289916 C133.204168,25.289916 133.409333,25.0834454 133.409333,24.7737395 L133.409333,20.9540336 C133.409333,20.5755042 133.204168,20.3690336 132.862227,20.3002101 C132.246733,20.1969748 131.494462,20.0937395 130.776385,20.024916 L130.776385,6.91403361 L132.075762,6.91403361 C132.14415,7.98079832 132.246733,9.08197479 132.383509,9.77021008 C132.451898,10.1143277 132.657062,10.3207983 133.033198,10.3207983 L136.794551,10.3207983 C137.204881,10.3207983 137.375852,10.1831513 137.410046,9.80462185 C137.512628,8.63462185 137.546822,6.67315126 137.546822,4.57403361 L137.546822,1.88991597 Z M152.455461,7.18932773 C150.54059,7.18932773 148.694107,7.67109244 147.292148,8.53138655 C146.266324,7.7055042 144.830171,7.18932773 142.983688,7.18932773 C141.718505,7.18932773 140.624293,7.32697479 139.837829,7.67109244 C139.495887,7.8087395 139.359111,8.01521008 139.359111,8.42815126 L139.359111,11.972563 C139.359111,12.2822689 139.564276,12.4887395 139.872023,12.4887395 L141.000429,12.4887395 C141.752699,12.4887395 141.992058,12.8672689 141.992058,13.7963866 L141.992058,20.024916 C141.239788,20.0937395 140.487517,20.1969748 139.906217,20.3002101 C139.564276,20.3690336 139.359111,20.5755042 139.359111,20.9540336 L139.359111,24.7737395 C139.359111,25.0834454 139.564276,25.289916 139.872023,25.289916 L151.29286,25.289916 C151.600607,25.289916 151.805772,25.0834454 151.805772,24.7737395 L151.805772,20.9540336 C151.805772,20.5755042 151.600607,20.3690336 151.258666,20.3002101 C150.608978,20.1969748 149.822513,20.0593277 149.036048,20.024916 L149.036048,12.7984454 C149.446378,12.7296218 149.959289,12.6607983 150.438007,12.6607983 C150.54059,13.5210924 150.643172,14.3469748 150.745754,14.8287395 C150.814143,15.1728571 151.019307,15.3793277 151.395443,15.3793277 L155.156796,15.3793277 C155.567126,15.3793277 155.738096,15.2416807 155.772291,14.8631513 C155.874873,13.4178571 155.909067,11.387563 155.909067,9.63256303 L155.909067,8.2905042 C155.909067,7.73991597 155.738096,7.56785714 155.156796,7.46462185 C154.301943,7.29256303 153.241925,7.18932773 152.455461,7.18932773 L152.455461,7.18932773 Z M178.032666,8.18726891 C178.032666,7.7055042 177.861695,7.46462185 177.348783,7.46462185 L169.073805,7.46462185 C168.766058,7.46462185 168.560893,7.67109244 168.560893,7.98079832 L168.560893,11.8005042 C168.560893,12.1790336 168.766058,12.3855042 169.107999,12.4543277 C169.655105,12.557563 170.304794,12.6607983 170.988676,12.7296218 L170.988676,20.1281513 C170.509958,20.2313866 169.928658,20.2657983 169.313164,20.2657983 C167.808622,20.2657983 167.12474,19.6807983 167.12474,17.9602101 L167.12474,8.18726891 C167.12474,7.7055042 166.953769,7.46462185 166.440857,7.46462185 L157.960715,7.46462185 C157.652967,7.46462185 157.447803,7.67109244 157.447803,7.98079832 L157.447803,11.8005042 C157.447803,12.1790336 157.652967,12.3855042 157.994909,12.4543277 C158.576209,12.5919748 159.32848,12.6952101 160.08075,12.7296218 L160.08075,17.8569748 C160.08075,23.1563866 162.405951,25.5652101 167.569264,25.5652101 C169.484135,25.5652101 171.364811,25.1178571 172.732576,24.2231513 C173.7584,25.0490336 175.194553,25.5652101 177.041036,25.5652101 C178.306219,25.5652101 179.400431,25.427563 180.186896,25.0834454 C180.528837,24.9457983 180.665613,24.7393277 180.665613,24.3263866 L180.665613,20.7819748 C180.665613,20.4722689 180.460449,20.2657983 180.152701,20.2657983 L179.024295,20.2657983 C178.272025,20.2657983 178.032666,19.8872689 178.032666,18.9581513 L178.032666,8.18726891 Z M182.238543,23.9478571 C182.238543,24.3263866 182.477902,24.6016807 182.888231,24.7393277 C184.563744,25.2555042 187.333468,25.5652101 190.17158,25.5652101 C195.129728,25.5652101 197.728482,23.534916 197.728482,20.162563 C197.728482,17.6160924 196.258134,16.3084454 193.078081,14.9663866 L190.445133,13.8652101 C189.658668,13.5555042 189.282533,13.3146218 189.282533,12.8328571 C189.282533,12.2822689 189.76125,12.0757983 191.129015,12.0757983 L191.197404,12.0757983 L191.402568,13.1081513 C191.470957,13.4522689 191.676121,13.6587395 192.052257,13.6587395 L195.813611,13.6587395 C196.22394,13.6587395 196.394911,13.5210924 196.429105,13.142563 C196.531687,12.0069748 196.565881,10.3552101 196.565881,8.94432773 L196.565881,8.77226891 C196.565881,8.3937395 196.326522,8.11844538 195.916193,7.98079832 C194.377457,7.46462185 191.881286,7.18932773 189.795445,7.18932773 C185.28182,7.18932773 182.238543,8.70344538 182.238543,12.6607983 C182.238543,15.2760924 183.777279,16.7213866 186.512809,17.822563 L189.385115,18.992563 C190.274162,19.3366807 190.684492,19.6119748 190.684492,19.9905042 C190.684492,20.5066807 190.137386,20.6787395 188.735427,20.6787395 L187.572827,20.6787395 C187.538632,20.3346218 187.470244,19.9905042 187.401856,19.6463866 C187.333468,19.3022689 187.128303,19.0957983 186.752168,19.0957983 L182.990814,19.0957983 C182.580484,19.0957983 182.409514,19.2334454 182.37532,19.6119748 C182.272737,20.747563 182.238543,22.364916 182.238543,23.7757983 L182.238543,23.9478571 Z M201.900165,12.7640336 L201.900165,18.8205042 C201.900165,22.9843277 203.644065,25.5652101 209.49126,25.5652101 C210.653861,25.5652101 212.124208,25.3243277 213.115838,24.9113866 C213.526167,24.7393277 213.765526,24.4984454 213.765526,24.119916 L213.765526,20.609916 C213.765526,20.2313866 213.560361,20.0937395 213.184226,20.1281513 C212.500343,20.1969748 211.782267,20.2657983 211.235161,20.2657983 C209.286096,20.2657983 208.944154,19.439916 208.944154,17.9257983 L208.944154,12.7640336 L212.944867,12.7640336 C213.423585,12.7640336 213.662944,12.5919748 213.662944,12.0757983 L213.662944,8.15285714 C213.662944,7.63668067 213.423585,7.46462185 212.944867,7.46462185 L208.944154,7.46462185 L208.944154,3.43844538 C208.944154,2.95668067 208.773184,2.71579832 208.260272,2.71579832 L202.584047,2.71579832 C202.071135,2.71579832 201.900165,2.95668067 201.900165,3.43844538 L201.900165,7.46462185 L199.54077,7.46462185 C199.062052,7.46462185 198.822694,7.63668067 198.822694,8.15285714 L198.822694,12.0757983 C198.822694,12.5919748 199.062052,12.7640336 199.54077,12.7640336 L201.900165,12.7640336 Z" id="CodersTrust"></path>
                                </g>
                            </g>
                        </g>
                    </g>
                </g>
            </g>
        </g>
    </g>
</svg>