<?xml version="1.0" encoding="UTF-8"?>
<svg width="214px" height="26px" viewBox="0 0 214 26" version="1.1" xmlns="http://www.w3.org/2000/svg" xmlns:xlink="http://www.w3.org/1999/xlink">
    <!-- Generator: Sketch 41 (35326) - http://www.bohemiancoding.com/sketch -->
    <title>CodersTrust</title>
    <desc>Created with Sketch.</desc>
    <defs></defs>
    <g id="Welcome" stroke="none" stroke-width="1" fill="none" fill-rule="evenodd">
        <g id="Trial" transform="translate(-66.000000, -4515.000000)" fill="#FFFFFF">
            <g id="Group-6" transform="translate(65.000000, 4514.000000)">
                <path d="M18.9177213,3.47764706 C18.9177213,3.06470588 18.7125566,2.82382353 18.2338388,2.65176471 C16.6609091,2.06676471 14.1305439,1.61941176 11.6001786,1.61941176 C3.59875347,1.61941176 1,5.47352941 1,13.0441176 L1,15.1088235 C1,22.6794118 3.7697241,26.5335294 11.7711493,26.5335294 C14.4724851,26.5335294 16.9686562,26.155 18.5757801,25.4667647 C19.0886919,25.2602941 19.2596626,25.0882353 19.2596626,24.6408824 L19.2596626,21.0620588 C19.2596626,20.7179412 19.0203037,20.4426471 18.6783624,20.4770588 C17.3105975,20.6835294 15.1905617,20.8211765 13.5492437,20.8211765 C9.82208416,20.8211765 8.52270742,19.2726471 8.52270742,14.7302941 L8.52270742,13.4226471 C8.52270742,8.88029412 9.58272529,7.33176471 13.4466614,7.33176471 C13.4808555,8.50176471 13.617632,9.80941176 13.7544085,10.6008824 C13.8227967,10.945 14.0279615,11.1514706 14.4040969,11.1514706 L18.1654506,11.1514706 C18.5757801,11.1514706 18.7467507,11.0138235 18.7809448,10.6352941 C18.8835272,9.46529412 18.9177213,7.50382353 18.9177213,5.40470588 L18.9177213,3.47764706 Z M21.5506689,17.8961765 C21.5506689,23.5397059 24.6623343,26.3958824 30.3727531,26.3958824 C36.0831719,26.3958824 39.1948372,23.5397059 39.1948372,17.8961765 L39.1948372,16.5197059 C39.1948372,10.8761765 36.0831719,8.02 30.3727531,8.02 C24.6623343,8.02 21.5506689,10.8761765 21.5506689,16.5197059 L21.5506689,17.8961765 Z M32.1508476,17.8273529 C32.1508476,20.305 31.8089063,21.0964706 30.3727531,21.0964706 C28.9365998,21.0964706 28.5946586,20.305 28.5946586,17.8273529 L28.5946586,16.5885294 C28.5946586,14.1797059 28.9365998,13.3194118 30.3727531,13.3194118 C31.8089063,13.3194118 32.1508476,14.1797059 32.1508476,16.5885294 L32.1508476,17.8273529 Z M61.2842418,21.6126471 C61.2842418,21.3029412 61.079077,21.0964706 60.7713299,21.0964706 L59.6429238,21.0964706 C58.890653,21.0964706 58.6512942,20.7179412 58.6512942,19.7888235 L58.6512942,1.585 C58.6512942,1.24088235 58.4119353,1 58.069994,1 L49.4872688,1 C49.1795216,1 48.9743569,1.20647059 48.9743569,1.51617647 L48.9743569,5.19823529 C48.9743569,5.57676471 49.1795216,5.78323529 49.5214629,5.85205882 C50.102763,5.98970588 50.8550337,6.09294118 51.6073045,6.12735294 L51.6073045,8.50176471 C50.8208396,8.19205882 49.2479099,8.02 48.2904744,8.02 C43.4691028,8.02 40.9729317,11.3579412 40.9729317,16.2788235 L40.9729317,17.5176471 C40.9729317,23.23 44.4607324,26.3958824 49.0769393,26.3958824 C50.6840631,26.3958824 52.3253811,25.8797059 53.4195931,25.0194118 C54.4454168,25.9141176 55.9157642,26.3958824 57.6596645,26.3958824 C58.9248472,26.3958824 60.0190592,26.2582353 60.805524,25.9141176 C61.1474653,25.7764706 61.2842418,25.57 61.2842418,25.1570588 L61.2842418,21.6126471 Z M50.3421219,21.0964706 C48.461445,21.0964706 48.0169214,19.4791176 48.0169214,17.2423529 L48.0169214,16.5541176 C48.0169214,14.2485294 48.734998,13.3194118 50.4788984,13.3194118 C50.8208396,13.3194118 51.2311691,13.3538235 51.6073045,13.4226471 L51.6073045,20.9932353 C51.1627809,21.0620588 50.7182572,21.0964706 50.3421219,21.0964706 L50.3421219,21.0964706 Z M79.6806808,15.6594118 C79.6806808,10.9105882 76.9109567,8.02 71.6108674,8.02 C64.8746249,8.02 62.5152303,11.5988235 62.5152303,16.5197059 L62.5152303,17.8961765 C62.5152303,23.0235294 64.908819,26.3958824 71.9528087,26.3958824 C74.0386503,26.3958824 75.885133,26.155 77.6974216,25.6388235 C78.1419452,25.5011765 78.34711,25.2258824 78.34711,24.7441176 L78.34711,21.9567647 C78.34711,21.5782353 78.1419452,21.4061765 77.7658098,21.475 C76.3296566,21.6814706 75.1328622,21.7847059 73.5941266,21.7847059 C71.0979555,21.7847059 69.9353553,21.1652941 69.5250258,19.4102941 L75.2012505,19.4102941 C78.2787217,19.4102941 79.6806808,18.1714706 79.6806808,15.6594118 L79.6806808,15.6594118 Z M69.3540552,15.7282353 C69.4224434,13.9388235 69.9353553,12.7 71.3715085,12.7 C72.6366911,12.7 73.2179913,13.5258824 73.2179913,14.7647059 C73.2179913,15.3841176 72.9444383,15.7282353 72.2605558,15.7282353 L69.3540552,15.7282353 Z M94.5209309,8.02 C92.6060599,8.02 90.7595772,8.50176471 89.3576181,9.36205882 C88.3317944,8.53617647 86.8956411,8.02 85.0491584,8.02 C83.7839758,8.02 82.6897638,8.15764706 81.9032989,8.50176471 C81.5613577,8.63941176 81.4245812,8.84588235 81.4245812,9.25882353 L81.4245812,12.8032353 C81.4245812,13.1129412 81.6297459,13.3194118 81.9374931,13.3194118 L83.0658992,13.3194118 C83.8181699,13.3194118 84.0575288,13.6979412 84.0575288,14.6270588 L84.0575288,20.8555882 C83.305258,20.9244118 82.5529873,21.0276471 81.9716872,21.1308824 C81.6297459,21.1997059 81.4245812,21.4061765 81.4245812,21.7847059 L81.4245812,25.6044118 C81.4245812,25.9141176 81.6297459,26.1205882 81.9374931,26.1205882 L93.3583307,26.1205882 C93.6660778,26.1205882 93.8712426,25.9141176 93.8712426,25.6044118 L93.8712426,21.7847059 C93.8712426,21.4061765 93.6660778,21.1997059 93.3241366,21.1308824 C92.6744482,21.0276471 91.8879833,20.89 91.1015185,20.8555882 L91.1015185,13.6291176 C91.511848,13.5602941 92.0247598,13.4914706 92.5034776,13.4914706 C92.6060599,14.3517647 92.7086423,15.1776471 92.8112247,15.6594118 C92.8796129,16.0035294 93.0847777,16.21 93.4609131,16.21 L97.2222668,16.21 C97.6325963,16.21 97.8035669,16.0723529 97.837761,15.6938235 C97.9403434,14.2485294 97.9745375,12.2182353 97.9745375,10.4632353 L97.9745375,9.12117647 C97.9745375,8.57058824 97.8035669,8.39852941 97.2222668,8.29529412 C96.3674137,8.12323529 95.3073958,8.02 94.5209309,8.02 L94.5209309,8.02 Z M100.23135,24.7785294 C100.23135,25.1570588 100.470709,25.4323529 100.881038,25.57 C102.55655,26.0861765 105.326274,26.3958824 108.164387,26.3958824 C113.122535,26.3958824 115.721288,24.3655882 115.721288,20.9932353 C115.721288,18.4467647 114.250941,17.1391176 111.070887,15.7970588 L108.43794,14.6958824 C107.651475,14.3861765 107.275339,14.1452941 107.275339,13.6635294 C107.275339,13.1129412 107.754057,12.9064706 109.121822,12.9064706 L109.19021,12.9064706 L109.395375,13.9388235 C109.463763,14.2829412 109.668928,14.4894118 110.045064,14.4894118 L113.806417,14.4894118 C114.216747,14.4894118 114.387717,14.3517647 114.421911,13.9732353 C114.524494,12.8376471 114.558688,11.1858824 114.558688,9.775 L114.558688,9.60294118 C114.558688,9.22441176 114.319329,8.94911765 113.909,8.81147059 C112.370264,8.29529412 109.874093,8.02 107.788251,8.02 C103.274627,8.02 100.23135,9.53411765 100.23135,13.4914706 C100.23135,16.1067647 101.770085,17.5520588 104.505615,18.6532353 L107.377922,19.8232353 C108.266969,20.1673529 108.677299,20.4426471 108.677299,20.8211765 C108.677299,21.3373529 108.130193,21.5094118 106.728233,21.5094118 L105.565633,21.5094118 C105.531439,21.1652941 105.463051,20.8211765 105.394663,20.4770588 C105.326274,20.1329412 105.12111,19.9264706 104.744974,19.9264706 L100.98362,19.9264706 C100.573291,19.9264706 100.40232,20.0641176 100.368126,20.4426471 C100.265544,21.5782353 100.23135,23.1955882 100.23135,24.6064706 L100.23135,24.7785294 Z M138.460381,2.72058824 C138.460381,2.20441176 138.221022,2.03235294 137.742304,2.03235294 L118.114877,2.03235294 C117.636159,2.03235294 117.3968,2.20441176 117.3968,2.72058824 L117.3968,5.40470588 C117.3968,7.50382353 117.430994,9.46529412 117.533577,10.6352941 C117.567771,11.0138235 117.738742,11.1514706 118.149071,11.1514706 L121.910425,11.1514706 C122.28656,11.1514706 122.491725,10.945 122.560113,10.6008824 C122.662696,9.91264706 122.799472,8.81147059 122.833666,7.74470588 L124.167237,7.74470588 L124.167237,20.8555882 C123.414966,20.9244118 122.662696,21.0276471 122.081395,21.1308824 C121.739454,21.1997059 121.534289,21.4061765 121.534289,21.7847059 L121.534289,25.6044118 C121.534289,25.9141176 121.739454,26.1205882 122.047201,26.1205882 L133.80998,26.1205882 C134.117727,26.1205882 134.322892,25.9141176 134.322892,25.6044118 L134.322892,21.7847059 C134.322892,21.4061765 134.117727,21.1997059 133.775786,21.1308824 C133.160292,21.0276471 132.408021,20.9244118 131.689944,20.8555882 L131.689944,7.74470588 L132.989321,7.74470588 C133.057709,8.81147059 133.160292,9.91264706 133.297068,10.6008824 C133.365457,10.945 133.570621,11.1514706 133.946757,11.1514706 L137.70811,11.1514706 C138.11844,11.1514706 138.28941,11.0138235 138.323605,10.6352941 C138.426187,9.46529412 138.460381,7.50382353 138.460381,5.40470588 L138.460381,2.72058824 Z M153.369019,8.02 C151.454148,8.02 149.607666,8.50176471 148.205707,9.36205882 C147.179883,8.53617647 145.74373,8.02 143.897247,8.02 C142.632064,8.02 141.537852,8.15764706 140.751387,8.50176471 C140.409446,8.63941176 140.27267,8.84588235 140.27267,9.25882353 L140.27267,12.8032353 C140.27267,13.1129412 140.477834,13.3194118 140.785582,13.3194118 L141.913988,13.3194118 C142.666258,13.3194118 142.905617,13.6979412 142.905617,14.6270588 L142.905617,20.8555882 C142.153347,20.9244118 141.401076,21.0276471 140.819776,21.1308824 C140.477834,21.1997059 140.27267,21.4061765 140.27267,21.7847059 L140.27267,25.6044118 C140.27267,25.9141176 140.477834,26.1205882 140.785582,26.1205882 L152.206419,26.1205882 C152.514166,26.1205882 152.719331,25.9141176 152.719331,25.6044118 L152.719331,21.7847059 C152.719331,21.4061765 152.514166,21.1997059 152.172225,21.1308824 C151.522537,21.0276471 150.736072,20.89 149.949607,20.8555882 L149.949607,13.6291176 C150.359936,13.5602941 150.872848,13.4914706 151.351566,13.4914706 C151.454148,14.3517647 151.556731,15.1776471 151.659313,15.6594118 C151.727701,16.0035294 151.932866,16.21 152.309002,16.21 L156.070355,16.21 C156.480685,16.21 156.651655,16.0723529 156.68585,15.6938235 C156.788432,14.2485294 156.822626,12.2182353 156.822626,10.4632353 L156.822626,9.12117647 C156.822626,8.57058824 156.651655,8.39852941 156.070355,8.29529412 C155.215502,8.12323529 154.155484,8.02 153.369019,8.02 L153.369019,8.02 Z M178.946225,9.01794118 C178.946225,8.53617647 178.775254,8.29529412 178.262342,8.29529412 L169.987364,8.29529412 C169.679617,8.29529412 169.474452,8.50176471 169.474452,8.81147059 L169.474452,12.6311765 C169.474452,13.0097059 169.679617,13.2161765 170.021558,13.285 C170.568664,13.3882353 171.218353,13.4914706 171.902235,13.5602941 L171.902235,20.9588235 C171.423517,21.0620588 170.842217,21.0964706 170.226723,21.0964706 C168.722181,21.0964706 168.038299,20.5114706 168.038299,18.7908824 L168.038299,9.01794118 C168.038299,8.53617647 167.867328,8.29529412 167.354416,8.29529412 L158.874274,8.29529412 C158.566526,8.29529412 158.361362,8.50176471 158.361362,8.81147059 L158.361362,12.6311765 C158.361362,13.0097059 158.566526,13.2161765 158.908468,13.285 C159.489768,13.4226471 160.242039,13.5258824 160.994309,13.5602941 L160.994309,18.6876471 C160.994309,23.9870588 163.31951,26.3958824 168.482823,26.3958824 C170.397694,26.3958824 172.27837,25.9485294 173.646135,25.0538235 C174.671959,25.8797059 176.108112,26.3958824 177.954595,26.3958824 C179.219778,26.3958824 180.31399,26.2582353 181.100455,25.9141176 C181.442396,25.7764706 181.579172,25.57 181.579172,25.1570588 L181.579172,21.6126471 C181.579172,21.3029412 181.374008,21.0964706 181.06626,21.0964706 L179.937854,21.0964706 C179.185584,21.0964706 178.946225,20.7179412 178.946225,19.7888235 L178.946225,9.01794118 Z M183.152102,24.7785294 C183.152102,25.1570588 183.391461,25.4323529 183.80179,25.57 C185.477303,26.0861765 188.247027,26.3958824 191.085139,26.3958824 C196.043287,26.3958824 198.64204,24.3655882 198.64204,20.9932353 C198.64204,18.4467647 197.171693,17.1391176 193.99164,15.7970588 L191.358692,14.6958824 C190.572227,14.3861765 190.196092,14.1452941 190.196092,13.6635294 C190.196092,13.1129412 190.674809,12.9064706 192.042574,12.9064706 L192.110963,12.9064706 L192.316127,13.9388235 C192.384516,14.2829412 192.58968,14.4894118 192.965816,14.4894118 L196.72717,14.4894118 C197.137499,14.4894118 197.30847,14.3517647 197.342664,13.9732353 C197.445246,12.8376471 197.47944,11.1858824 197.47944,9.775 L197.47944,9.60294118 C197.47944,9.22441176 197.240081,8.94911765 196.829752,8.81147059 C195.291016,8.29529412 192.794845,8.02 190.709004,8.02 C186.195379,8.02 183.152102,9.53411765 183.152102,13.4914706 C183.152102,16.1067647 184.690838,17.5520588 187.426368,18.6532353 L190.298674,19.8232353 C191.187721,20.1673529 191.598051,20.4426471 191.598051,20.8211765 C191.598051,21.3373529 191.050945,21.5094118 189.648986,21.5094118 L188.486385,21.5094118 C188.452191,21.1652941 188.383803,20.8211765 188.315415,20.4770588 C188.247027,20.1329412 188.041862,19.9264706 187.665726,19.9264706 L183.904373,19.9264706 C183.494043,19.9264706 183.323073,20.0641176 183.288879,20.4426471 C183.186296,21.5782353 183.152102,23.1955882 183.152102,24.6064706 L183.152102,24.7785294 Z M202.813724,13.5947059 L202.813724,19.6511765 C202.813724,23.815 204.557624,26.3958824 210.404819,26.3958824 C211.56742,26.3958824 213.037767,26.155 214.029397,25.7420588 C214.439726,25.57 214.679085,25.3291176 214.679085,24.9505882 L214.679085,21.4405882 C214.679085,21.0620588 214.47392,20.9244118 214.097785,20.9588235 C213.413902,21.0276471 212.695826,21.0964706 212.14872,21.0964706 C210.199655,21.0964706 209.857713,20.2705882 209.857713,18.7564706 L209.857713,13.5947059 L213.858426,13.5947059 C214.337144,13.5947059 214.576503,13.4226471 214.576503,12.9064706 L214.576503,8.98352941 C214.576503,8.46735294 214.337144,8.29529412 213.858426,8.29529412 L209.857713,8.29529412 L209.857713,4.26911765 C209.857713,3.78735294 209.686743,3.54647059 209.173831,3.54647059 L203.497606,3.54647059 C202.984694,3.54647059 202.813724,3.78735294 202.813724,4.26911765 L202.813724,8.29529412 L200.454329,8.29529412 C199.975611,8.29529412 199.736252,8.46735294 199.736252,8.98352941 L199.736252,12.9064706 C199.736252,13.4226471 199.975611,13.5947059 200.454329,13.5947059 L202.813724,13.5947059 Z" id="CodersTrust"></path>
            </g>
        </g>
    </g>
</svg>