<?xml version="1.0" encoding="UTF-8"?>
<svg width="150px" height="38px" viewBox="0 0 150 38" version="1.1" xmlns="http://www.w3.org/2000/svg" xmlns:xlink="http://www.w3.org/1999/xlink">
    <!-- Generator: Sketch 41 (35326) - http://www.bohemiancoding.com/sketch -->
    <title>forbes-logo</title>
    <desc>Created with Sketch.</desc>
    <defs></defs>
    <g id="Welcome" stroke="none" stroke-width="1" fill="none" fill-rule="evenodd">
        <g id="Trial" transform="translate(-144.000000, -4332.000000)" fill="#9B9B9B">
            <g id="Group-8" transform="translate(144.000000, 4313.000000)">
                <g id="forbes-logo" transform="translate(0.000000, 19.000000)">
                    <g id="Group-13">
                        <path d="M148.425096,12.0257962 C146.507771,11.1445223 143.644586,10.6180892 140.639427,10.6180892 C134.157516,10.6180892 130.225605,14.4168153 130.225605,18.8484076 C130.225605,23.4154777 133.185669,25.2141401 137.26586,26.6684713 C141.660382,28.2366879 142.819682,29.4584713 142.819682,31.4875796 C142.819682,33.5816561 141.283758,35.5419745 138.530255,35.5419745 C135.274968,35.5419745 132.823567,33.6311465 130.936624,28.3597452 L129.615669,28.7044586 L129.84879,36.2398089 C131.994268,37.1082803 135.65465,37.8343949 138.952739,37.8343949 C145.816051,37.8343949 149.987197,34.4887261 149.987197,29.042293 C149.987197,25.3908917 148.205159,23.3917834 143.702675,21.6477707 C138.838471,19.7617834 137.153885,18.576879 137.153885,16.322293 C137.153885,14.0508917 138.651019,12.4931847 140.736497,12.4931847 C143.856115,12.4931847 145.990892,14.43 147.393057,18.9787261 L148.713822,18.6393631 L148.425096,12.0257962" id="Fill-12"></path>
                        <path d="M111.943949,21.186879 L120.022739,21.0189172 C120.063631,17.4416561 119.494968,12.3292357 116.586688,12.3292357 C113.661019,12.3292357 112.015223,17.1613376 111.943949,21.186879 L111.943949,21.186879 Z M103.919618,24.4624204 C103.910828,17.3413376 108.408917,10.6383439 117.291019,10.6383439 C124.514522,10.6383439 127.963567,15.9938217 128.002357,22.9973885 L111.88586,22.9973885 C111.707389,29.3547134 114.925605,34.0253503 121.08707,34.0253503 C123.797006,34.0253503 125.257834,33.3535032 126.897134,32.0975159 L127.651146,33.0087898 C125.865096,35.4838854 122.134013,37.8343949 117.181338,37.8343949 C109.41707,37.8343949 103.925541,32.3407643 103.919618,24.4624204 L103.919618,24.4624204 Z" id="Fill-11"></path>
                        <path d="M87.3397452,36.0074522 C86.6847134,36.0074522 85.8382166,35.8994904 85.3729299,35.8135032 C85.1898726,33.3384076 85.0801911,23.1290446 85.0907006,14.2135032 C86.1504459,13.8569427 86.8593631,13.7728662 87.7834395,13.7728662 C91.5689809,13.7728662 93.6907643,18.1387261 93.699172,23.6589172 C93.7142675,30.6777707 91.0903185,36.0074522 87.3397452,36.0074522 L87.3397452,36.0074522 Z M91.3509554,10.9117834 C88.9771338,10.9117834 87.0728025,11.5486624 85.0949045,12.5166879 C85.1147771,6.9133758 85.179172,2.02318471 85.3192357,0.174840764 L73.7935032,2.40019108 L73.7935032,3.43757962 L74.9159236,3.58070064 C76.5229299,3.80388535 77.141465,4.74515924 77.3289172,6.8877707 C77.6950318,10.9992994 77.6392357,33.062293 77.3289172,36.5998089 C80.4332484,37.2959236 83.7917197,37.8343949 87.1543949,37.8343949 C96.2996178,37.8343949 101.803567,32.1814013 101.803567,23.2389172 C101.803567,16.0629936 97.3356688,10.9117834 91.3509554,10.9117834 L91.3509554,10.9117834 Z" id="Fill-8"></path>
                        <path d="M64.6461783,16.6045223 L64.7711465,10.5984076 L53.2866879,12.8216561 L53.2866879,13.8590446 L54.4114013,14.0044586 C56.0161146,14.2293631 56.6346497,15.170828 56.8240127,17.3134395 C57.1882166,21.4228662 57.1320382,28.7732484 56.8240127,32.3107643 C56.6346497,34.4583439 56.0161146,35.397707 54.4114013,35.6195541 L53.2866879,35.7617197 L53.2866879,37.2181529 L69.2805096,37.2181529 L69.2805096,35.7617197 L67.1971338,35.6195541 C65.5901274,35.397707 64.9694904,34.4583439 64.7801274,32.3107643 C64.4956051,29.0619745 64.4289172,22.6012739 64.7023567,18.3852229 C65.4735669,17.1078344 69.228535,16.0885987 72.7186624,18.433758 L75.5342675,11.3461146 C72.6280892,9.60745223 67.3284076,10.4327389 64.6461783,16.6045223 Z" id="Fill-14"></path>
                        <path d="M39.7102548,12.2875796 C35.9036943,12.2875796 34.8372611,17.4393631 34.8372611,24.2317834 C34.8372611,30.8327389 36.5218471,36.1626115 40.0549682,36.1626115 C43.8615287,36.1626115 44.9258599,31.0180892 44.9258599,24.2317834 C44.9258599,17.6247134 43.2412739,12.2875796 39.7102548,12.2875796 L39.7102548,12.2875796 Z M40.156242,10.6180892 C48.7712102,10.6180892 53.053949,16.4591083 53.053949,24.1587898 C53.053949,31.6729299 48.2218471,37.8343949 39.6049682,37.8343949 C30.9919108,37.8343949 26.7112739,31.996051 26.7112739,24.2923567 C26.7112739,16.7835669 31.5412739,10.6180892 40.156242,10.6180892 L40.156242,10.6180892 Z" id="Fill-10"></path>
                        <path d="M30.309172,0.99133758 L0,0.99133758 L0,2.4466242 L1.61140127,2.66522293 C3.92522293,3.00363057 4.81280255,4.43732484 5.08414013,7.69987261 C5.60541401,13.9538217 5.53433121,25.1369427 5.08414013,30.5159236 C4.81280255,33.7756051 3.92522293,35.2058599 1.61140127,35.5444586 L0,35.7617197 L0,37.2200637 L19.479172,37.2200637 L19.479172,35.7617197 L17.4326752,35.5444586 C15.1190446,35.2058599 14.2312739,33.7756051 13.9620382,30.5159236 C13.774586,28.2884713 13.6540127,24.5442038 13.6133121,20.1450955 L17.6289172,20.275414 C20.3086624,20.3619745 21.4331847,22.3446497 22.0729299,25.2875159 L23.5746497,25.2875159 L23.5746497,13.0295541 L22.0729299,13.0295541 C21.4331847,15.9701274 20.3086624,17.9575796 17.6289172,18.043758 L13.6024204,18.1717834 C13.5720382,12.3810191 13.6821019,6.81859873 13.9620382,3.47751592 L19.9465605,3.47751592 C24.6129936,3.47751592 27.1075796,6.44159236 28.6780892,11.6810828 L30.4748408,11.185414 L30.309172,0.99133758" id="Fill-9"></path>
                    </g>
                </g>
            </g>
        </g>
    </g>
</svg>