<?xml version="1.0" encoding="UTF-8"?>
<svg width="36px" height="36px" viewBox="0 0 36 36" version="1.1" xmlns="http://www.w3.org/2000/svg" xmlns:xlink="http://www.w3.org/1999/xlink">
    <!-- Generator: Sketch 41 (35326) - http://www.bohemiancoding.com/sketch -->
    <title>Shape</title>
    <desc>Created with Sketch.</desc>
    <defs></defs>
    <g id="Welcome" stroke="none" stroke-width="1" fill="none" fill-rule="evenodd">
        <g id="Trial" transform="translate(-1205.000000, -4557.000000)" fill="#FFFFFF">
            <g id="Group-6" transform="translate(65.000000, 4514.000000)">
                <g id="post-linkedin" transform="translate(1140.000000, 43.000000)">
                    <g id="Page-1">
                        <g>
                            <g id="Icons-Social">
                                <g id="post-linkedin">
                                    <path d="M32.4,0 L3.6,0 C1.62,0 0,1.62 0,3.6 L0,32.4 C0,34.38 1.62,36 3.6,36 L32.4,36 C34.38,36 36,34.38 36,32.4 L36,3.6 C36,1.62 34.38,0 32.4,0 L32.4,0 Z M10.8,30.6 L5.4,30.6 L5.4,14.4 L10.8,14.4 L10.8,30.6 L10.8,30.6 Z M8.1,11.34 C6.3,11.34 4.86,9.9 4.86,8.1 C4.86,6.3 6.3,4.86 8.1,4.86 C9.9,4.86 11.34,6.3 11.34,8.1 C11.34,9.9 9.9,11.34 8.1,11.34 L8.1,11.34 Z M30.6,30.6 L25.2,30.6 L25.2,21.06 C25.2,19.62 23.94,18.36 22.5,18.36 C21.06,18.36 19.8,19.62 19.8,21.06 L19.8,30.6 L14.4,30.6 L14.4,14.4 L19.8,14.4 L19.8,16.56 C20.7,15.12 22.68,14.04 24.3,14.04 C27.72,14.04 30.6,16.92 30.6,20.34 L30.6,30.6 L30.6,30.6 Z" id="Shape"></path>
                                </g>
                            </g>
                        </g>
                    </g>
                </g>
            </g>
        </g>
    </g>
</svg>