<?xml version="1.0" encoding="UTF-8"?>
<svg width="110px" height="75px" viewBox="0 0 110 75" version="1.1" xmlns="http://www.w3.org/2000/svg" xmlns:xlink="http://www.w3.org/1999/xlink">
    <!-- Generator: Sketch 41 (35326) - http://www.bohemiancoding.com/sketch -->
    <title>Group 9</title>
    <desc>Created with Sketch.</desc>
    <defs></defs>
    <g id="Welcome" stroke="none" stroke-width="1" fill="none" fill-rule="evenodd">
        <g id="Trial" transform="translate(-909.000000, -4313.000000)">
            <g id="Group-8" transform="translate(144.000000, 4313.000000)">
                <g id="Group-9" transform="translate(765.000000, 0.000000)">
                    <g id="wsj--" transform="translate(0.000000, 63.000000)">
                        <g id="Group-12" fill="#9B9B9B">
                            <path d="M18.4147458,0.0664971751 C18.5297175,0.10440678 18.6061582,0.142937853 18.5682486,0.296440678 C18.5297175,0.564915254 18.1077401,0.449943503 17.8777966,0.526384181 C17.3023164,0.718418079 17.4943503,1.48531073 17.4172881,2.02225989 L17.4172881,4.24711864 L17.4172881,7.43028249 L17.4172881,9.61661017 C17.4172881,9.92299435 17.3793785,10.2685311 17.609322,10.3835028 C17.7628249,10.6134463 18.2227119,10.4599435 18.5297175,10.4984746 C18.990226,10.4220339 19.1816384,9.92299435 19.4886441,9.69305085 C19.6036158,9.27107345 19.7956497,8.92615819 19.8720904,8.50418079 C20.1020339,7.73728814 19.9870621,6.73983051 20.2555367,5.97293785 C20.4090395,5.93440678 20.4475706,6.04937853 20.4861017,6.16435028 L20.4861017,10.4220339 C20.5625424,10.5370056 20.4475706,10.7284181 20.4475706,10.8440113 L20.1020339,10.920452 L16.2284181,10.920452 L15.8449718,10.920452 C15.6914689,10.8819209 15.4615254,10.920452 15.3844633,10.7669492 C15.4229944,10.3449718 16.1134463,10.5370056 16.1134463,10.0385876 L16.1134463,4.63056497 C16.0749153,3.94011299 16.1134463,3.05824859 16.1134463,2.40570621 C16.1134463,1.75378531 16.3054802,0.871920904 15.8449718,0.526384181 C15.6529379,0.334971751 15.039548,0.641977401 15.1159887,0.22 C15.1545198,0.142937853 15.1930508,0.10440678 15.3080226,0.0664971751 L18.4147458,0.0664971751" id="Fill-2"></path>
                            <path d="M33.8327684,0.641977401 C33.9862712,0.756949153 34.1783051,0.641977401 34.2547458,0.603446328 C34.4082486,0.449943503 34.2547458,0.0664971751 34.5617514,0.10440678 L34.7531638,0.142937853 L34.7531638,4.1700565 C34.6767232,4.20858757 34.7531638,4.43853107 34.6381921,4.43853107 L34.4082486,4.43853107 C34.3318079,2.98118644 34.2162147,1.48531073 33.1423164,0.794858757 C32.950904,0.679887006 32.7209605,0.603446328 32.4903955,0.603446328 C32.0305085,0.641977401 31.7620339,0.986892655 31.57,1.33180791 C31.3015254,1.75378531 31.3785876,2.55920904 31.6085311,2.94265537 C32.1840113,3.7480791 33.1044068,4.20858757 33.7948588,4.86050847 C34.4846893,5.58949153 35.290113,6.35638418 35.3286441,7.58378531 C35.4436158,8.92615819 34.9837288,10.0385876 34.1012429,10.7669492 C33.6028249,11.1124859 32.8359322,11.1503955 32.260452,10.920452 L31.4550282,10.3835028 C31.2629944,10.3070621 31.2250847,10.4984746 31.1480226,10.5755367 C31.1480226,10.8054802 31.110113,10.9589831 30.9566102,11.0354237 L30.6881356,10.9589831 L30.6496045,8.73412429 L30.6496045,6.24141243 C30.7260452,6.20288136 30.9180791,6.20288136 30.9945198,6.24141243 C31.0715819,7.81372881 31.110113,9.46310734 32.260452,10.2685311 C32.6053672,10.4984746 33.0273446,10.6905085 33.5263842,10.5370056 C34.2547458,10.23 34.5232203,9.42457627 34.5232203,8.54271186 C34.4467797,7.77519774 34.139774,7.20033898 33.6028249,6.77836158 C32.8738418,5.89587571 31.7999435,5.4359887 31.110113,4.47706215 C30.9180791,4.24711864 30.9180791,3.94011299 30.7645763,3.67163842 C30.3811299,2.40570621 30.879548,1.14039548 31.6085311,0.373502825 C31.9534463,0.142937853 32.4903955,-0.0105649718 32.950904,0.10440678 C33.2958192,0.22 33.6028249,0.411412429 33.8327684,0.641977401" id="Fill-3"></path>
                            <path d="M3.49514124,0.10440678 C3.57158192,0.142937853 3.68655367,0.142937853 3.72508475,0.296440678 C3.61011299,0.564915254 3.26519774,0.564915254 3.14960452,0.794858757 C3.03463277,1.02542373 3.03463277,1.44677966 3.11169492,1.71587571 L3.57158192,4.43853107 C3.76361582,5.32101695 3.95502825,6.24141243 4.18559322,7.12327684 L4.30056497,7.12327684 C4.60757062,5.81943503 4.83751412,4.51559322 5.06745763,3.21112994 C4.83751412,2.21429379 5.02892655,0.871920904 4.10853107,0.411412429 C4.0320904,0.22 4.14706215,0.10440678 4.33909605,0.10440678 C4.8760452,0.142937853 6.60186441,0.10440678 7.02384181,0.142937853 C7.06175141,0.22 7.06175141,0.373502825 7.02384181,0.449943503 C6.71683616,0.564915254 6.37129944,0.526384181 6.17988701,0.794858757 C5.7579096,1.48531073 6.33338983,2.21429379 6.29485876,3.01971751 L6.75536723,5.4359887 C6.87033898,5.97293785 6.87033898,6.62485876 7.17672316,7.04683616 L7.21525424,7.04683616 L7.79073446,4.55350282 C8.09774011,3.51813559 8.25062147,2.40570621 8.48118644,1.33180791 C8.55762712,0.986892655 8.44265537,0.756949153 8.21271186,0.603446328 C8.05920904,0.449943503 7.79073446,0.488474576 7.56079096,0.449943503 C7.52225989,0.373502825 7.52225989,0.22 7.56079096,0.142937853 C8.13564972,0.142937853 9.9,0.10440678 10.1299435,0.142937853 C10.2455367,0.181468927 10.2070056,0.373502825 10.1684746,0.449943503 C9.82355932,0.526384181 9.4780226,0.603446328 9.28661017,0.833389831 C9.0560452,1.44677966 8.94107345,2.09932203 8.78757062,2.71271186 L8.13564972,5.70446328 C7.75220339,7.35384181 7.33022599,9.04112994 6.94677966,10.7284181 C6.87033898,10.8440113 6.67830508,10.8440113 6.60186441,10.7669492 C6.37129944,10.4599435 6.37129944,9.96152542 6.25632768,9.53954802 L5.68146893,6.24141243 L5.37446328,4.86050847 L5.29740113,4.86050847 L4.83751412,7.12327684 C4.60757062,8.23570621 4.37700565,9.34813559 4.14706215,10.4984746 C4.10853107,10.7284181 3.95502825,10.8819209 3.64864407,10.8054802 C3.38016949,10.7284181 3.49514124,10.3835028 3.4180791,10.1535593 L3.22666667,8.92615819 L2.65118644,5.89587571 L2.26774011,3.71016949 C2.15276836,2.82768362 1.92282486,1.94581921 1.73079096,1.10186441 C1.69225989,0.871920904 1.46231638,0.718418079 1.30881356,0.564915254 C1.04033898,0.488474576 0.81039548,0.603446328 0.541920904,0.449943503 C0.464858757,0.373502825 0.426949153,0.142937853 0.580451977,0.10440678 L3.49514124,0.10440678" id="Fill-4"></path>
                            <path d="M12.2398305,0.373502825 C12.3933333,1.40887006 12.6997175,2.32926554 12.8532203,3.40316384 L13.6586441,7.35384181 C13.850678,8.23570621 13.9271186,9.11757062 14.1570621,9.92299435 C14.2726554,10.2685311 14.5025989,10.4984746 14.8860452,10.5370056 C14.8860452,10.6519774 15.0010169,10.7284181 14.9245763,10.8054802 L14.8096045,10.920452 L12.5462147,10.920452 C12.469774,10.8054802 12.0863277,10.920452 11.9328249,10.8054802 C11.8178531,10.23 12.6618079,10.6905085 12.7382486,10.2685311 C12.9302825,10.0764972 12.8532203,9.69305085 12.8146893,9.46310734 C12.6232768,9.07966102 12.7767797,8.42774011 12.3933333,8.15926554 L10.8589266,8.15926554 L10.7054237,8.23570621 C10.6668927,8.92615819 10.1684746,9.69305085 10.590452,10.3835028 C10.7439548,10.4984746 11.0509605,10.4599435 11.1659322,10.5755367 L11.1274011,10.8054802 L8.94107345,10.8440113 C8.71112994,10.920452 8.74966102,10.5755367 8.82610169,10.4984746 C9.28661017,10.5370056 9.55508475,10.3070621 9.78502825,10.0764972 C10.0535028,9.46310734 10.0535028,8.69621469 10.2455367,8.00576271 L10.6668927,5.32101695 L11.0509605,3.09615819 C11.2423729,2.17576271 11.3573446,1.21683616 11.5493785,0.257909605 C11.5879096,0.0664971751 12.3162712,-0.0484745763 12.2398305,0.373502825" id="Fill-5"></path>
                            <path d="M24.3597175,0.10440678 C24.3982486,0.181468927 24.4746893,0.334971751 24.3982486,0.411412429 C24.0527119,0.564915254 23.4772316,0.411412429 23.400791,0.833389831 C23.3237288,2.02225989 23.3237288,2.90474576 23.3237288,4.09361582 L23.2858192,8.77265537 L23.2472881,8.77265537 C23.4772316,9.34813559 22.9402825,10.4984746 23.7842373,10.5370056 C23.9762712,10.5755367 24.3597175,10.5755367 24.5511299,10.4599435 C25.3186441,9.84655367 25.5485876,8.81118644 25.7020904,7.77519774 C25.8170621,7.23824859 25.7406215,6.58632768 25.8935028,6.04937853 C25.970565,6.01084746 26.1240678,6.01084746 26.2005085,6.04937853 L26.2005085,10.7284181 L26.1619774,10.920452 C25.5485876,10.920452 24.8966667,10.920452 24.4361582,10.9589831 L22.2498305,10.920452 L21.0609605,10.920452 C20.869548,10.920452 20.9459887,10.6519774 20.9845198,10.5370056 C21.3679661,10.4984746 21.8284746,10.5370056 22.019887,10.23 C22.1733898,9.65451977 22.0584181,8.88762712 22.1348588,8.27423729 C22.0584181,7.73728814 22.1733898,7.16180791 22.0969492,6.54841808 L22.1348588,6.04937853 L22.1348588,1.14039548 C22.0969492,0.948361582 21.9813559,0.718418079 21.8663842,0.603446328 C21.6364407,0.334971751 20.7160452,0.718418079 21.0609605,0.10440678 L24.3597175,0.10440678" id="Fill-6"></path>
                            <path d="M40.5831638,0.142937853 L40.6596045,0.334971751 L40.6596045,4.74553672 C40.6216949,4.86050847 40.5446328,4.89903955 40.4681921,4.93757062 L40.2761582,4.86050847 C40.3146893,3.47960452 40.1226554,2.25282486 39.739209,1.14039548 C39.6627684,0.910451977 39.4707345,0.718418079 39.240791,0.603446328 C39.0487571,0.603446328 38.8573446,0.603446328 38.7802825,0.756949153 L38.7802825,8.92615819 L38.7423729,8.92615819 C38.7802825,9.50163842 38.6653107,10.23 39.0872881,10.4984746 C39.3557627,10.6905085 39.8162712,10.3835028 39.8541808,10.8054802 C39.8541808,11.1124859 39.4328249,10.8819209 39.240791,10.9968927 L38.3968362,10.9968927 L38.3968362,10.9589831 C38.1283616,11.0739548 37.859887,10.8819209 37.6299435,10.9968927 C37.4,10.9589831 36.9009605,10.9589831 36.5560452,10.9589831 C36.4410734,10.920452 36.4796045,10.6905085 36.5175141,10.6134463 C36.9394915,10.5370056 37.4,10.4984746 37.5535028,10.0385876 L37.5535028,0.833389831 C37.4764407,0.641977401 37.3614689,0.603446328 37.2079661,0.564915254 C36.6324859,0.718418079 36.4796045,1.33180791 36.3261017,1.90728814 C36.1340678,2.75124294 35.980565,3.59519774 36.0576271,4.63056497 C35.980565,4.74553672 36.0576271,4.93757062 35.8655932,4.93757062 L35.6356497,4.86050847 L35.6356497,0.22 C36.1340678,0.0664971751 39.3942938,0.10440678 40.5831638,0.142937853" id="Fill-7"></path>
                            <path d="M45.1472316,0.142937853 C45.7991525,0.334971751 46.3361017,0.756949153 46.6431073,1.33180791 C46.9115819,2.17576271 47.0650847,3.55666667 46.5281356,4.28502825 C46.259661,4.66909605 45.9526554,5.0140113 45.530678,5.28248588 C45.4542373,5.55096045 45.7227119,5.55096045 45.8762147,5.78090395 C46.4131638,6.16435028 46.4896045,7.04683616 46.4896045,7.73728814 C46.4896045,7.66022599 46.4131638,7.58378531 46.3746328,7.66022599 C46.3361017,7.77519774 46.4131638,7.85225989 46.5281356,7.85225989 C46.5660452,8.50418079 46.4510734,9.23316384 46.6045763,9.8080226 C46.6431073,9.92299435 46.719548,10.0000565 46.8345198,10.0385876 C47.0265537,10.0000565 47.0650847,9.8080226 47.1415254,9.69305085 C47.1029944,9.34813559 47.1800565,8.9640678 47.2185876,8.61915254 C47.3335593,8.69621469 47.4485311,8.46564972 47.5249718,8.61915254 C47.6020339,9.50163842 47.5635028,10.4220339 46.9880226,10.8440113 C46.7580791,10.9968927 46.5281356,11.0739548 46.1825989,11.0354237 C45.7991525,10.920452 45.530678,10.6905085 45.3392655,10.3835028 L45.2236723,9.65451977 L45.2236723,6.89333333 C45.1087006,6.35638418 44.9937288,5.78090395 44.4567797,5.62740113 C44.2268362,5.55096045 43.8433898,5.47451977 43.6513559,5.62740113 L43.5749153,5.78090395 L43.5749153,10.0385876 C43.6513559,10.2685311 43.7284181,10.4599435 43.9198305,10.5370056 C44.1118644,10.5755367 44.380339,10.5370056 44.3418079,10.8440113 L44.2653672,10.9589831 L42.270452,10.9968927 C42.1940113,10.9968927 42.0790395,10.920452 42.0405085,10.9968927 C41.849096,10.8440113 41.1965537,11.1889266 41.3500565,10.7284181 C41.3500565,10.4599435 41.6955932,10.6519774 41.849096,10.5370056 C42.0405085,10.4984746 42.1554802,10.3070621 42.270452,10.1914689 C42.270452,10.0000565 42.3860452,9.77011299 42.3089831,9.5780791 L42.3475141,7.35384181 C42.3475141,6.43282486 42.3089831,5.55096045 42.3475141,4.74553672 C42.3475141,4.1700565 42.3475141,3.36463277 42.3089831,2.75124294 C42.3475141,2.36779661 42.3089831,1.79231638 42.3475141,1.40887006 C42.270452,1.06333333 42.1940113,0.718418079 41.8870056,0.603446328 C41.6955932,0.526384181 41.3500565,0.641977401 41.2736158,0.449943503 C41.2350847,0.296440678 41.2736158,0.181468927 41.4271186,0.142937853 L45.1472316,0.142937853" id="Fill-8"></path>
                            <path d="M53.24,0.142937853 C53.5084746,0.257909605 53.3549718,0.794858757 53.3935028,1.06333333 C53.5084746,1.67734463 53.3164407,2.36779661 53.4314124,2.90474576 C53.3164407,3.13468927 53.4699435,3.28819209 53.4314124,3.51813559 C53.3549718,3.78661017 53.4314124,4.1700565 53.3549718,4.40062147 C52.8180226,4.43853107 53.0864972,3.7480791 53.009435,3.40316384 C52.8944633,2.21429379 52.4724859,1.14039548 51.4756497,0.641977401 C51.130113,0.526384181 50.5552542,0.526384181 50.3246893,0.794858757 C50.0947458,1.48531073 50.2097175,2.63627119 50.2097175,3.28819209 C50.1332768,3.51813559 50.2482486,3.59519774 50.2097175,3.86367232 L50.2097175,4.93757062 C50.2482486,5.05254237 50.1718079,5.35892655 50.4402825,5.32101695 C51.360678,4.89903955 51.4756497,3.82514124 51.4756497,2.75124294 C51.4756497,2.59774011 51.5520904,2.52129944 51.7826554,2.55920904 L51.820565,2.78977401 C51.7441243,3.28819209 51.8976271,3.90158192 51.7826554,4.43853107 C51.7826554,4.97548023 51.7826554,5.70446328 51.820565,6.27932203 C51.7826554,6.96977401 51.7826554,7.58378531 51.820565,8.27423729 C51.820565,8.42774011 51.7441243,8.50418079 51.5906215,8.50418079 C51.3221469,8.27423729 51.5141808,7.62231638 51.3985876,7.27677966 C51.2457062,6.62485876 51.0922034,5.8579661 50.3632203,5.70446328 L50.2482486,5.78090395 C50.1718079,6.62485876 50.2097175,7.23824859 50.2097175,8.00576271 C50.2097175,8.69621469 50.2482486,9.5780791 50.2097175,10.2685311 C50.4402825,10.7284181 51.0151412,10.5370056 51.5520904,10.5370056 C52.5110169,10.1150282 52.8565537,8.9640678 53.0479661,7.89079096 L53.5084746,8.00576271 L53.5084746,10.8440113 L53.3935028,10.9589831 L48.9444068,10.9968927 C48.6374011,10.920452 48.100452,11.0354237 47.7934463,10.920452 C47.6784746,10.3070621 48.4074576,10.7284181 48.6374011,10.4984746 C48.790904,10.4220339 48.8673446,10.2685311 48.9444068,10.1150282 L48.9444068,1.06333333 C48.8673446,0.871920904 48.7523729,0.679887006 48.5988701,0.603446328 C48.3303955,0.488474576 47.7555367,0.718418079 47.7934463,0.257909605 L47.8705085,0.142937853 L53.24,0.142937853" id="Fill-9"></path>
                            <path d="M58.800904,0.142937853 C58.9929379,0.257909605 59.529887,0.0664971751 59.6448588,0.296440678 C59.6448588,1.71587571 59.6833898,2.94265537 59.6448588,4.32355932 C59.6063277,4.43853107 59.4149153,4.43853107 59.3378531,4.3620904 C59.1849718,2.86621469 59.2228814,1.10186441 57.8425989,0.564915254 C57.5355932,0.449943503 57.1900565,0.603446328 56.8836723,0.603446328 C56.6916384,0.794858757 56.5381356,0.948361582 56.5381356,1.25536723 L56.5381356,4.97548023 C56.5766667,5.09045198 56.6151977,5.16751412 56.7301695,5.16751412 C57.7655367,4.89903955 57.689096,3.63310734 57.8425989,2.59774011 C57.8805085,2.52129944 58.0725424,2.52129944 58.1489831,2.59774011 L58.1489831,4.1700565 C58.2260452,4.24711864 58.1489831,4.24711864 58.1489831,4.40062147 C58.2260452,4.74553672 58.1489831,5.0140113 58.1875141,5.4359887 L58.1875141,6.47135593 C58.0725424,7.04683616 58.2260452,7.77519774 58.0725424,8.31214689 C57.9954802,8.38920904 57.8425989,8.35067797 57.8040678,8.23570621 C57.7270056,7.35384181 57.7270056,6.20288136 57.0365537,5.6659322 C56.960113,5.58949153 56.7301695,5.58949153 56.6151977,5.6659322 L56.5381356,5.93440678 L56.5381356,8.42774011 L56.5766667,8.42774011 C56.6151977,9.04112994 56.3467232,10.0385876 56.8066102,10.4220339 C57.1136158,10.5755367 57.5355932,10.6134463 57.9190395,10.5370056 C58.7629944,10.2685311 58.9929379,9.3860452 59.2999435,8.61915254 C59.2228814,8.31214689 59.4149153,8.00576271 59.4149153,7.66022599 L59.4913559,6.43282486 C59.5684181,6.35638418 59.6448588,6.31785311 59.7598305,6.39491525 L59.8368927,6.47135593 C59.7219209,7.04683616 60.0668362,7.96723164 59.529887,8.19717514 C59.4913559,8.35067797 59.2999435,8.35067797 59.2999435,8.54271186 C59.4534463,8.38920904 59.6448588,8.23570621 59.7983616,8.00576271 L59.8748023,8.00576271 L59.8368927,10.23 C59.7598305,10.4984746 59.9518644,10.920452 59.6448588,10.9968927 C58.9929379,11.0739548 58.379548,11.0354237 57.7270056,11.0354237 C56.4996045,10.9589831 55.3492655,10.9968927 54.1603955,10.9968927 C54.0454237,10.9589831 54.0454237,10.7284181 54.1218644,10.6519774 C54.4674011,10.5370056 54.9272881,10.6134463 55.1572316,10.2685311 C55.5027684,10.0000565 55.3107345,9.23316384 55.3492655,8.73412429 C55.3877966,7.89079096 55.2728249,6.77836158 55.3492655,6.01084746 L55.3107345,3.82514124 L55.3107345,1.10186441 C55.1957627,0.794858757 54.9658192,0.526384181 54.5823729,0.526384181 C54.3518079,0.526384181 54.0833333,0.564915254 54.1603955,0.257909605 C54.1989266,0.10440678 58.1875141,0.142937853 58.800904,0.142937853" id="Fill-10"></path>
                            <path d="M78.3231073,1.25536723 C78.8221469,1.94581921 78.9750282,2.94265537 79.2055932,3.90158192 C79.4740678,5.89587571 79.2820339,8.19717514 78.5151412,9.65451977 C78.2081356,10.23 77.7861582,10.6519774 77.2877401,10.9589831 C76.8272316,11.0739548 76.1374011,11.1124859 75.8303955,10.8054802 C74.3730508,9.46310734 74.0275141,7.35384181 74.0660452,4.89903955 C74.1424859,3.24966102 74.6415254,1.67734463 75.600452,0.564915254 C75.9838983,0.142937853 76.7122599,0.0279661017 77.3262712,0.22 C77.7097175,0.488474576 78.0931638,0.833389831 78.3231073,1.25536723" id="Fill-11"></path>
                            <path d="M65.5133898,0.257909605 L65.5898305,0.373502825 L65.6283616,3.32672316 C65.5133898,3.82514124 65.6283616,4.43853107 65.5512994,4.93757062 C65.4363277,5.05254237 65.3213559,4.93757062 65.2449153,4.89903955 L65.129322,3.01971751 C64.9764407,2.13723164 64.8229379,1.33180791 64.3238983,0.718418079 C64.2089266,0.603446328 63.940452,0.603446328 63.8640113,0.718418079 L63.7105085,0.871920904 L63.7105085,10.1914689 C63.7869492,10.7284181 64.5544633,10.4220339 64.8608475,10.6519774 C64.8993785,10.8440113 64.8229379,10.9589831 64.669435,10.9968927 C63.6719774,11.1124859 62.6751412,10.920452 61.6776836,10.9968927 C61.4477401,11.0354237 61.4477401,10.7669492 61.5241808,10.6519774 C61.8697175,10.5755367 62.2916949,10.6134463 62.4066667,10.2685311 L62.4445763,5.97293785 L62.4445763,0.910451977 C62.3681356,0.794858757 62.2916949,0.679887006 62.1381921,0.641977401 C61.4477401,0.718418079 61.409209,1.40887006 61.2171751,1.90728814 L60.910791,3.97864407 C60.8337288,4.32355932 60.9872316,4.7840678 60.7958192,4.97548023 L60.5652542,4.93757062 L60.5273446,2.78977401 C60.5273446,2.02225989 60.4888136,1.06333333 60.5652542,0.296440678 C60.8337288,0.10440678 64.8608475,0.22 65.5133898,0.257909605" id="Fill-12"></path>
                            <path d="M73.7975706,0.22 C73.9896045,0.181468927 74.0275141,0.373502825 73.9510734,0.488474576 C73.5676271,0.564915254 73.1841808,0.564915254 72.9536158,0.833389831 C72.6851412,1.44677966 72.9921469,2.25282486 72.8771751,2.90474576 C72.9157062,3.01971751 72.8386441,3.24966102 72.8771751,3.44169492 C72.9157062,3.94011299 72.8771751,4.51559322 72.8771751,4.97548023 L72.8771751,5.62740113 L72.8771751,9.27107345 C72.6472316,10.0385876 72.3016949,10.8054802 71.5348023,10.9968927 C70.7679096,11.1889266 70.2688701,10.8440113 69.9239548,10.4599435 C69.5019774,9.84655367 69.0414689,9.04112994 69.3870056,8.12073446 C69.5405085,7.77519774 69.8089831,7.58378531 70.1924294,7.54525424 C70.3838418,7.62231638 70.6144068,7.69875706 70.6908475,7.89079096 C70.6523164,8.23570621 70.8828814,8.61915254 70.6523164,8.84909605 C70.6144068,9.15610169 70.1924294,9.15610169 70.1924294,9.50163842 C70.2309605,9.96152542 70.4223729,10.3449718 70.8058192,10.4984746 C71.1513559,10.5755367 71.3427684,10.4220339 71.5348023,10.23 C71.8032768,9.46310734 71.649774,8.23570621 71.649774,7.39175141 L71.6883051,5.16751412 L71.6883051,1.21683616 C71.6112429,0.986892655 71.5348023,0.794858757 71.3427684,0.603446328 C71.1128249,0.411412429 70.5758757,0.679887006 70.460904,0.373502825 L70.5758757,0.142937853 C71.7647458,0.142937853 72.6087006,0.257909605 73.7975706,0.22" id="Fill-13"></path>
                            <path d="M82.1967232,0.257909605 C82.350226,0.181468927 82.6572316,0.142937853 82.7722034,0.334971751 C82.8107345,0.564915254 82.6572316,0.603446328 82.5037288,0.641977401 C82.2737853,0.641977401 82.1202825,0.756949153 81.9667797,0.871920904 C81.8132768,1.14039548 81.8132768,1.52384181 81.8132768,1.90728814 L81.8132768,6.27932203 L81.7753672,6.31785311 C81.8518079,7.46881356 81.7753672,8.23570621 81.8518079,9.42457627 C81.9667797,9.88508475 82.2352542,10.3070621 82.6572316,10.5370056 C83.0021469,10.6134463 83.4626554,10.5755367 83.6925989,10.3070621 C84.0760452,10.0385876 84.1531073,9.61661017 84.229548,9.19463277 L84.229548,5.35892655 L84.1916384,5.12898305 L84.229548,1.75378531 C84.2680791,1.40887006 84.1916384,1.02542373 83.9996045,0.756949153 C83.8075706,0.603446328 83.4626554,0.603446328 83.2327119,0.564915254 L83.2706215,0.296440678 L85.3034463,0.257909605 C85.4184181,0.257909605 85.4954802,0.373502825 85.4954802,0.449943503 C85.4954802,0.641977401 85.1884746,0.526384181 85.1120339,0.603446328 C84.92,0.641977401 84.7285876,0.794858757 84.7285876,0.986892655 L84.6129944,1.60028249 L84.6129944,9.27107345 C84.5365537,9.92299435 84.1531073,10.4599435 83.6925989,10.8440113 C83.3862147,11.1124859 82.7722034,10.9968927 82.4272881,11.0739548 C81.659774,10.920452 81.0078531,10.3835028 80.7779096,9.65451977 C80.3174011,8.69621469 80.6244068,7.12327684 80.509435,6.0879096 L80.509435,1.14039548 C80.4329944,0.910451977 80.3174011,0.756949153 80.1259887,0.641977401 C79.9339548,0.564915254 79.5890395,0.641977401 79.5890395,0.411412429 C79.5505085,0.181468927 79.8189831,0.296440678 79.9339548,0.22 L82.1967232,0.257909605" id="Fill-14"></path>
                            <path d="M88.3716384,0.296440678 C89.5225989,0.142937853 90.6729379,0.373502825 91.1334463,1.29389831 C91.5168927,1.90728814 91.7468362,2.86621469 91.4783616,3.71016949 C91.1334463,4.32355932 90.8649718,5.09045198 90.1745198,5.39745763 C90.1745198,5.74299435 90.5579661,5.81943503 90.7114689,6.0879096 C90.8649718,6.39491525 91.0184746,6.66338983 91.0184746,7.08536723 L91.0949153,9.04112994 C91.0949153,9.3860452 91.0563842,9.96152542 91.4019209,10.1150282 C91.8618079,9.96152542 91.7468362,9.27107345 91.8238983,8.77265537 C91.8618079,8.73412429 92.0153107,8.73412429 92.0538418,8.77265537 C92.1688136,9.61661017 91.9774011,10.4220339 91.4783616,10.920452 C91.209887,11.0354237 90.8649718,11.1889266 90.5579661,11.0739548 C90.2130508,11.0739548 90.2130508,10.6905085 89.9824859,10.4984746 L89.8675141,9.3860452 L89.8675141,7.16180791 C89.8296045,6.66338983 89.7910734,6.0879096 89.4076271,5.81943503 C89.1391525,5.58949153 88.640113,5.51242938 88.2566667,5.6659322 L88.180226,5.78090395 C88.0267232,7.27677966 88.2187571,8.50418079 88.180226,10.0764972 C88.2187571,10.3070621 88.2566667,10.5755367 88.5251412,10.6905085 C88.7557062,10.7284181 88.870678,10.6905085 89.1391525,10.7669492 C89.1770621,10.8440113 89.1391525,10.9589831 89.1770621,11.0739548 L87.1448588,11.1124859 L86.0324294,11.0354237 C85.9553672,10.9589831 85.9553672,10.7669492 86.0324294,10.7284181 C86.3773446,10.7284181 86.6458192,10.6134463 86.8378531,10.4220339 L86.9528249,10.0385876 L86.9528249,1.21683616 C86.8763842,0.986892655 86.8378531,0.756949153 86.6079096,0.641977401 C86.4158757,0.564915254 86.0709605,0.679887006 86.0709605,0.411412429 C86.1859322,0.142937853 86.4158757,0.373502825 86.6843503,0.257909605 C87.2598305,0.296440678 87.7197175,0.296440678 88.3716384,0.296440678" id="Fill-15"></path>
                            <path d="M94.0096045,0.257909605 C94.0866667,0.334971751 94.2401695,0.373502825 94.2780791,0.488474576 C95.0455932,2.63627119 95.620452,4.86050847 96.5029379,6.93186441 C96.7328814,6.89333333 96.4258757,6.66338983 96.5793785,6.54841808 C96.5414689,5.74299435 96.6179096,4.97548023 96.5414689,4.13214689 C96.6179096,3.67163842 96.5414689,3.32672316 96.5793785,2.82768362 C96.4644068,2.75124294 96.6564407,2.63627119 96.5414689,2.59774011 C96.6179096,2.13723164 96.5029379,1.48531073 96.5029379,0.948361582 C96.310904,0.679887006 95.9659887,0.603446328 95.5825424,0.603446328 C95.5825424,0.564915254 95.5054802,0.334971751 95.6589831,0.296440678 L97.8838418,0.296440678 C98.0367232,0.334971751 97.9602825,0.488474576 97.9602825,0.603446328 C97.730339,0.718418079 97.3848023,0.679887006 97.2312994,0.910451977 L97.0784181,1.29389831 L97.039887,3.36463277 L97.039887,9.11757062 L97.039887,9.92299435 C97.0013559,10.23 97.0784181,10.7284181 97.0013559,11.0354237 C96.9249153,11.1124859 96.7328814,11.1503955 96.6564407,11.0739548 C96.3879661,10.7284181 96.4258757,10.1535593 96.1574011,9.8080226 C95.7360452,8.77265537 95.5054802,7.58378531 95.0835028,6.58632768 L94.3166102,4.40062147 C94.2016384,4.01655367 94.0096045,3.71016949 93.8946328,3.36463277 L93.8181921,3.40316384 C93.7032203,3.86367232 93.7032203,4.24711864 93.779661,4.70700565 L93.7411299,6.77836158 L93.7411299,10.1914689 C93.8181921,10.3835028 93.8946328,10.5755367 94.0866667,10.6905085 C94.2780791,10.8054802 94.7385876,10.5755367 94.7385876,10.920452 L94.7000565,11.0739548 L92.5522599,11.1124859 C92.3987571,11.0739548 92.2073446,11.0739548 92.2073446,10.8819209 C92.3608475,10.5755367 93.0127684,10.8819209 93.1662712,10.4984746 C93.319774,10.1914689 93.319774,9.77011299 93.319774,9.34813559 L93.2812429,4.93757062 L93.2812429,1.25536723 C93.2041808,0.718418079 92.6672316,0.679887006 92.2458757,0.564915254 C92.1302825,0.488474576 92.2458757,0.373502825 92.2458757,0.296440678 C92.8207345,0.22 93.3962147,0.257909605 94.0096045,0.257909605" id="Fill-16"></path>
                            <path d="M101.488983,2.21429379 C101.642486,3.28819209 101.987401,4.24711864 102.102373,5.35892655 L102.792825,8.54271186 C103.022768,9.30960452 102.984859,10.3070621 103.71322,10.6905085 C103.905254,10.7284181 104.135198,10.7284181 104.020226,11.0354237 L103.981695,11.1124859 C103.099831,11.1503955 101.91096,11.1889266 100.990565,11.0739548 C100.798531,10.5370056 101.450452,10.7669492 101.680395,10.6134463 C101.872429,10.4599435 101.91096,10.1535593 101.872429,9.8080226 C101.757458,9.27107345 101.680395,8.69621469 101.450452,8.27423729 C100.837062,8.23570621 100.108079,8.23570621 99.5711299,8.31214689 C99.4176271,8.50418079 99.3797175,8.81118644 99.3411864,9.11757062 C99.2641243,9.5780791 98.9577401,10.2685311 99.4176271,10.6519774 C99.609661,10.8440113 100.376554,10.4984746 100.108079,11.0739548 C99.4946893,11.1889266 98.7657062,11.1503955 98.1523164,11.1503955 C97.9602825,11.0739548 97.5383051,11.2274576 97.6532768,10.8440113 C97.6532768,10.6134463 98.0367232,10.7669492 98.1523164,10.6905085 C98.4972316,10.4984746 98.6507345,10.1535593 98.7271751,9.8080226 L99.1876836,7.20033898 L99.7631638,3.90158192 L100.108079,1.98435028 C100.223051,1.40887006 100.300113,0.756949153 100.568588,0.296440678 L101.067006,0.334971751 L101.488983,2.21429379" id="Fill-17"></path>
                            <path d="M107.318983,0.296440678 C107.471864,0.334971751 107.625367,0.373502825 107.625367,0.564915254 C107.548927,0.833389831 107.050508,0.679887006 106.858475,0.833389831 C106.59,0.948361582 106.59,1.29389831 106.513559,1.52384181 L106.513559,10.0764972 C106.397966,10.3449718 106.59,10.5370056 106.743503,10.6905085 C107.050508,10.8819209 107.74096,10.8440113 108.124407,10.7284181 C108.737797,10.3449718 108.852768,9.5780791 109.121243,8.88762712 L109.389718,6.89333333 C109.428249,6.81689266 109.581751,6.81689266 109.696723,6.89333333 L109.696723,10.4599435 L109.658192,10.4599435 C109.658192,10.6519774 109.696723,10.9589831 109.619661,11.1503955 C109.428249,11.2274576 109.121243,11.1503955 108.96774,11.1889266 L108.852768,11.1503955 L106.782034,11.1889266 C105.97661,11.1503955 105.094124,11.2653672 104.442203,11.0739548 C104.365763,11.0354237 104.365763,10.8819209 104.403672,10.8054802 C104.634237,10.6519774 105.132655,10.8440113 105.247627,10.4984746 L105.286158,10.1150282 L105.286158,1.06333333 C105.094124,0.679887006 104.672147,0.641977401 104.288701,0.641977401 C104.288701,0.488474576 104.21226,0.334971751 104.365763,0.296440678 L107.318983,0.296440678" id="Fill-18"></path>
                        </g>
                        <path d="M77.6326554,1.29389831 L77.7097175,2.02225989 L77.7097175,4.43853107 L77.7482486,4.47706215 L77.7097175,9.46310734 C77.6326554,9.84655367 77.4412429,10.1150282 77.249209,10.4220339 C76.9807345,10.6519774 76.5208475,10.6134463 76.2523729,10.4599435 C75.6768927,10.0764972 75.5619209,9.34813559 75.600452,8.69621469 C75.5619209,8.15926554 75.7533333,7.69875706 75.600452,7.20033898 C75.6383616,6.62485876 75.600452,5.97293785 75.6768927,5.35892655 C75.600452,5.32101695 75.6768927,5.09045198 75.600452,5.05254237 C75.7533333,4.86050847 75.5619209,4.74553672 75.600452,4.55350282 C75.6383616,3.59519774 75.600452,2.86621469 75.600452,1.75378531 C75.7533333,1.25536723 75.9838983,0.679887006 76.5208475,0.564915254 C77.0957062,0.526384181 77.4027119,0.871920904 77.6326554,1.29389831" id="Fill-19" fill="#FFFFFF"></path>
                        <path d="M44.840226,0.641977401 C45.9141243,1.29389831 45.4921469,2.94265537 45.4542373,4.1700565 C45.3771751,4.51559322 45.1857627,4.7840678 44.9172881,5.0140113 C44.6102825,5.2060452 43.9583616,5.16751412 43.6513559,5.05254237 L43.6128249,1.14039548 C43.6513559,0.871920904 43.7663277,0.603446328 44.1118644,0.603446328 C44.3418079,0.526384181 44.5717514,0.641977401 44.840226,0.641977401" id="Fill-20" fill="#FFFFFF"></path>
                        <path d="M90.059548,1.25536723 C90.1745198,1.52384181 90.1745198,1.90728814 90.2130508,2.17576271 L90.1745198,4.20858757 C90.059548,4.5920339 89.9445763,4.93757062 89.5990395,5.09045198 C89.2926554,5.2060452 88.6022034,5.2060452 88.2187571,5.09045198 C88.180226,3.63310734 88.180226,2.52129944 88.180226,1.06333333 C88.2187571,0.871920904 88.3716384,0.679887006 88.6022034,0.603446328 C89.330565,0.449943503 89.7140113,0.833389831 90.059548,1.25536723" id="Fill-21" fill="#FFFFFF"></path>
                        <path d="M100.530056,3.51813559 C100.76,4.97548023 101.220508,6.27932203 101.411921,7.77519774 L101.33548,7.85225989 L99.8010734,7.89079096 L99.609661,7.77519774 C99.6481921,7.35384181 99.7246328,6.89333333 99.8396045,6.43282486 L100.14661,4.40062147 C100.223051,4.09361582 100.261582,3.7480791 100.376554,3.47960452 L100.530056,3.51813559" id="Fill-22" fill="#FFFFFF"></path>
                        <path d="M12.0092655,5.55096045 L12.3933333,7.62231638 C12.1248588,7.92870056 11.5879096,7.62231638 11.1659322,7.73728814 L10.8589266,7.69875706 L10.8974576,7.20033898 L11.2423729,5.0140113 L11.5108475,3.59519774 L11.5879096,3.63310734 L12.0092655,5.55096045" id="Fill-23" fill="#FFFFFF"></path>
                    </g>
                    <g id="wsj" fill="#9B9B9B">
                        <path d="M3.37704348,4.19486239 L0.458671126,3.7394072 L0.226568562,3.7394072 L0.226568562,1.49848977 L15.960388,1.49848977 L15.960388,3.7394072 L15.5232018,3.7394072 C13.7194426,3.51736062 12.8216321,4.19486239 12.8216321,5.97967537 L12.8216321,7.10321807 L19.5646511,41.6389273 L23.613262,18.9885533 L21.3677592,7.5547777 C20.9152731,4.64057869 19.7964281,3.51736062 17.7680535,3.7394072 L17.5359509,3.7394072 L17.5359509,1.49848977 L32.8254225,1.49848977 L32.8254225,3.7394072 L32.6086198,3.7394072 C30.1355719,3.51736062 29.0089142,4.41658433 29.0089142,6.43513056 L35.7555139,41.4126606 L36.2005128,41.4126606 L42.2778239,8.22676076 L42.2778239,6.88149612 C42.2778239,4.41658433 41.1472598,3.51736062 38.6777926,3.7394072 L38.004272,3.7394072 L38.004272,1.49848977 L51.2572308,1.49848977 L51.2572308,3.7394072 L50.5915229,3.7394072 L47.4413735,4.19486239 L45.4204861,8.67215243 L34.8534716,58.6728864 L31.7104838,58.6728864 L25.188825,25.9346507 L18.4379933,58.6728864 L15.0664838,58.6728864 L4.94804905,7.5547777 L3.37704348,4.19486239" id="Fill-18"></path>
                        <path d="M74.6445753,0.826831334 L74.6445753,20.5552152 L72.6240134,20.5552152 L72.6240134,19.8835568 C72.6240134,8.67442484 69.4810256,3.06969654 63.1869119,3.06969654 C58.9136856,2.84764996 56.6688339,5.08824277 56.8856366,10.0216373 C56.8856366,12.4920677 57.562738,14.9547071 59.1379755,17.1952999 L65.8809944,23.2515879 L74.1995764,31.5487932 C76.4483344,34.9064361 77.5710858,39.1678476 77.5710858,43.8756246 C77.5710858,53.296048 73.076825,58.0035004 64.305757,58.0035004 C60.9342475,58.0035004 57.562738,56.8799577 54.1918796,54.4130981 L52.8370256,57.7853493 L51.2614627,57.7853493 L51.2614627,37.8248553 L53.0655474,37.8248553 L53.0655474,38.4968384 C53.0655474,44.5476076 54.4083567,49.0343119 56.8856366,52.1728299 C58.9136856,54.4130981 61.1552821,55.5369654 63.6319108,55.5369654 C68.8071795,55.5369654 71.5015875,52.6243896 71.5015875,46.5642061 C71.5015875,40.9633733 68.1258462,35.5787438 61.3834783,30.4252505 C54.4083567,25.2665632 50.8161382,19.6615102 50.8161382,13.159506 C50.5915229,9.11981651 51.9467023,5.98194778 54.4083567,3.74135498 C56.4367313,1.27449541 59.1379755,0.159393084 62.5059041,0.159393084 C65.8809944,0.159393084 68.8071795,1.27449541 71.7262029,3.74135498 L73.297534,0.826831334 L74.6445753,0.826831334" id="Fill-19"></path>
                        <path d="M90.3907648,44.5492308 C90.3907648,47.9094707 88.8187826,49.7040226 85.4440178,49.9296401 L87.0114426,54.1913761 C88.1338685,55.5343684 89.7091059,56.2063514 91.5128651,56.2063514 L95.5578952,54.4114749 L96.684553,48.1393084 L96.684553,7.10321807 C96.4557057,4.86489767 95.5578952,3.74330275 93.5409142,3.74330275 L91.9620959,3.74330275 L91.9620959,1.49848977 L109.272129,1.49848977 L109.272129,3.74330275 L107.700473,3.74330275 C105.679911,3.74330275 104.549998,4.86489767 104.7821,7.10321807 L104.7821,46.5658292 C104.549998,54.6413126 100.276446,58.6728864 91.9620959,58.9027241 C89.0359108,58.6728864 86.5579799,57.7830769 84.9869744,55.7586874 C82.5175072,53.2918278 81.3950814,50.3760056 81.3950814,46.5658292 L83.1946087,42.0826958 L86.1175385,40.5137615 C88.58668,40.5137615 90.162243,41.8590261 90.3907648,44.5492308" id="Fill-20"></path>
                    </g>
                </g>
            </g>
        </g>
    </g>
</svg>