<?xml version="1.0" encoding="UTF-8"?>
<svg width="110px" height="76px" viewBox="0 0 110 76" version="1.1" xmlns="http://www.w3.org/2000/svg" xmlns:xlink="http://www.w3.org/1999/xlink">
    <!-- Generator: Sketch 41 (35326) - http://www.bohemiancoding.com/sketch -->
    <title>tc-logo5</title>
    <desc>Created with Sketch.</desc>
    <defs></defs>
    <g id="Welcome" stroke="none" stroke-width="1" fill="none" fill-rule="evenodd">
        <g id="Trial" transform="translate(-412.000000, -4313.000000)" fill="#9B9B9B">
            <g id="Group-8" transform="translate(144.000000, 4313.000000)">
                <g id="tc-logo5" transform="translate(268.000000, 0.000000)">
                    <g id="Group">
                        <g>
                            <polygon id="Shape" points="55 0.148556701 0.189003436 0.148556701 0.189003436 18.2928866 18.3333333 18.2928866 18.3333333 55.715567 36.8556701 55.715567 36.8556701 18.2928866 55 18.2928866"></polygon>
                            <rect id="Rectangle-path" x="73.1443299" y="0.148556701" width="36.6666667" height="18.1443299"></rect>
                            <polygon id="Shape" points="73.1443299 36.6069416 73.1443299 18.2928866 55 18.2928866 55 55.715567 109.810997 55.715567 109.810997 36.6337801"></polygon>
                        </g>
                        <polygon id="Shape" points="7.74914089 63.2757045 7.74914089 74.6159107 4.72508591 74.6159107 4.72508591 63.2757045 0.189003436 63.2757045 0.189003436 61.0076632 11.5292096 61.0076632 11.5292096 63.2757045"></polygon>
                        <path d="M20.0230241,70.0798282 L13.7341237,70.0798282 C13.8339175,71.5918557 14.8957388,72.2851203 15.897457,72.2851203 C16.6587629,72.2851203 17.2991065,72.1161512 17.7001718,71.6542268 L19.6627835,73.3522337 C18.8217182,74.4333333 17.2991065,75.0827491 15.897457,75.0827491 C12.8730241,75.0827491 10.9501031,72.9538144 10.9501031,69.628866 C10.9501031,66.4040893 12.9728179,64.1473883 15.6373883,64.1473883 C18.4418213,64.1473883 20.0634708,66.4112715 20.0634708,69.4164261 C20.0634708,69.8182474 20.0434364,70.0798282 20.0230241,70.0798282 L20.0230241,70.0798282 Z M15.4971478,66.6845704 C14.4954296,66.6845704 13.8747423,67.0557732 13.7745704,68.5678007 L17.38,68.5678007 C17.2998625,67.0557732 16.7389003,66.6845704 15.4971478,66.6845704 L15.4971478,66.6845704 Z" id="Shape"></path>
                        <path d="M26.6528866,75.1118557 C23.9085567,75.1118557 21.725945,72.8683849 21.725945,69.6436082 C21.725945,66.4188316 23.8492096,64.1557045 26.7730928,64.1557045 C28.7761512,64.1557045 30.0579725,65.1370103 30.9394845,66.4796907 L29.1171134,68.3220962 C28.4960481,67.4405842 27.8352921,66.8195189 26.7137457,66.8195189 C25.3914777,66.8195189 24.530378,67.9210309 24.530378,69.6432302 C24.530378,71.3264948 25.3914777,72.4484192 26.7137457,72.4484192 C27.7948454,72.4484192 28.4760137,71.9679725 29.1976289,71.1064948 L30.9598969,72.7689691 C29.9377663,74.1305498 28.7357045,75.1118557 26.6528866,75.1118557 L26.6528866,75.1118557 Z" id="Shape"></path>
                        <path d="M39.1237113,74.6159107 L39.1237113,69.2028522 C39.1237113,67.321134 38.7634708,66.7597938 37.621512,66.7597938 C36.4795533,66.7597938 36.0996564,67.321512 36.0996564,69.1438832 L36.0996564,74.6162887 L33.0756014,74.6162887 L33.0756014,61.6729553 L36.0996564,60.2898282 L36.0996564,65.0780412 C36.0996564,64.5771821 37.3111684,64.1568385 38.4126804,64.1568385 C41.0969072,64.1568385 42.1477663,65.999244 42.1477663,68.9635739 L42.1477663,74.6162887 L39.1237113,74.6162887 L39.1237113,74.6159107 Z" id="Shape"></path>
                        <path d="M53.1912371,64.956701 C52.690378,63.9958076 51.8893814,63.4340893 50.6279725,63.4340893 C48.5247423,63.4340893 47.3234364,65.2772509 47.3234364,67.8805842 C47.3234364,70.4041581 48.5451546,72.327079 50.6480069,72.327079 C51.9109278,72.327079 52.6518213,71.7865292 53.3923368,70.5447766 L55.7560137,71.9464261 C54.7951203,73.9294502 53.1114777,75.1110997 50.5686254,75.1110997 C46.9030928,75.1110997 44.438866,72.3059107 44.438866,67.8798282 C44.438866,63.6136426 47.0021306,60.6493127 50.6676632,60.6493127 C53.3121993,60.6493127 54.9145704,61.931134 55.7949485,63.7531271 L53.1912371,64.956701 L53.1912371,64.956701 Z" id="Shape"></path>
                        <path d="M63.4866323,67.6004811 C63.0458763,67.1994158 62.5998282,66.9193127 61.9791409,66.9193127 C60.8980412,66.9193127 60.2920962,67.3812371 60.2920962,69.2024742 L60.2920962,74.6155326 L57.2680412,74.6155326 L57.2680412,64.0313402 L60.2920962,64.0313402 L60.2920962,65.0772852 C61.04811,64.5764261 61.379244,64.1560825 62.3605498,64.1560825 C63.2617182,64.1560825 63.8945017,64.516323 64.2547423,64.8969759 L63.4866323,67.6004811 L63.4866323,67.6004811 Z" id="Shape"></path>
                        <path d="M72.3883162,74.5217869 L72.3883162,74.1906529 C71.6323024,74.691512 71.1768041,75.1118557 70.0752921,75.1118557 C67.3910653,75.1118557 66.3402062,73.2686942 66.3402062,70.3051203 L66.3402062,64.0317182 L68.6082474,64.0317182 L68.6082474,70.0639519 C68.6082474,71.9471821 69.3464948,72.5077663 70.4884536,72.5077663 C71.6289003,72.5077663 72.3883162,71.9460481 72.3883162,70.123677 L72.3883162,64.0313402 L75.4123711,64.0313402 L75.4123711,74.6155326 L72.269244,74.6155326 L72.3883162,74.5217869 L72.3883162,74.5217869 Z" id="Shape"></path>
                        <path d="M83.3505155,74.6159107 L83.3505155,69.2028522 C83.3505155,67.321134 83.1792784,66.7597938 82.0373196,66.7597938 C80.8968729,66.7597938 80.7044674,67.321512 80.7044674,69.1438832 L80.7044674,74.6162887 L77.6804124,74.6162887 L77.6804124,64.0320962 L80.7044674,64.0320962 L80.7044674,65.0780412 C80.7044674,64.5771821 81.7269759,64.1568385 82.828488,64.1568385 C85.5127148,64.1568385 86.3745704,65.999244 86.3745704,68.9635739 L86.3745704,74.6162887 L83.3505155,74.6162887 L83.3505155,74.6159107 Z" id="Shape"></path>
                        <path d="M93.6897595,75.1118557 C90.9454296,75.1118557 88.7628179,72.8683849 88.7628179,69.6436082 C88.7628179,66.4188316 90.8860825,64.1557045 93.8099656,64.1557045 C95.8137801,64.1557045 97.0956014,65.1370103 97.9763574,66.4796907 L96.1547423,68.3220962 C95.532921,67.4405842 94.872921,66.8195189 93.7513746,66.8195189 C92.4283505,66.8195189 91.5672509,67.9210309 91.5672509,69.6432302 C91.5672509,71.3264948 92.4283505,72.4484192 93.7513746,72.4484192 C94.8317182,72.4484192 95.5136426,71.9679725 96.2352577,71.1064948 L97.9975258,72.7689691 C96.9738832,74.1305498 95.7733333,75.1118557 93.6897595,75.1118557 L93.6897595,75.1118557 Z" id="Shape"></path>
                        <path d="M106.030928,74.8918557 L106.030928,69.2028522 C106.030928,67.321134 105.670687,66.7597938 104.528729,66.7597938 C103.388282,66.7597938 103.006873,67.321512 103.006873,69.1438832 L103.006873,74.6162887 L99.9828179,74.6162887 L99.9828179,61.6729553 L103.006873,60.2898282 L103.006873,65.0780412 C103.006873,64.5771821 104.218385,64.1568385 105.319897,64.1568385 C108.004124,64.1568385 109.054983,65.999244 109.054983,68.9635739 L109.054983,74.6162887 L106.101993,74.6162887 L106.030928,74.8918557 Z" id="Shape"></path>
                    </g>
                </g>
            </g>
        </g>
    </g>
</svg>