<?xml version="1.0" encoding="UTF-8"?>
<svg width="36px" height="36px" viewBox="0 0 36 36" version="1.1" xmlns="http://www.w3.org/2000/svg" xmlns:xlink="http://www.w3.org/1999/xlink">
    <!-- Generator: Sketch 41 (35326) - http://www.bohemiancoding.com/sketch -->
    <title>Shape</title>
    <desc>Created with Sketch.</desc>
    <defs></defs>
    <g id="Welcome" stroke="none" stroke-width="1" fill="none" fill-rule="evenodd">
        <g id="Trial" transform="translate(-1145.000000, -4557.000000)" fill="#FFFFFF">
            <g id="Group-6" transform="translate(65.000000, 4514.000000)">
                <g id="post-twitter" transform="translate(1080.000000, 43.000000)">
                    <g id="Page-1">
                        <g>
                            <g id="Icons-Social">
                                <g id="post-twitter">
                                    <path d="M32.4,0 L3.6,0 C1.62,0 0,1.62 0,3.6 L0,32.4 C0,34.38 1.62,36 3.6,36 L32.4,36 C34.38,36 36,34.38 36,32.4 L36,3.6 C36,1.62 34.38,0 32.4,0 L32.4,0 Z M28.26,13.14 C28.08,21.42 22.86,27.18 14.94,27.54 C11.7,27.72 9.36,26.64 7.2,25.38 C9.54,25.74 12.6,24.84 14.22,23.4 C11.88,23.22 10.44,21.96 9.72,19.98 C10.44,20.16 11.16,19.98 11.7,19.98 C9.54,19.26 8.1,18 7.92,15.12 C8.46,15.48 9.18,15.66 9.9,15.66 C8.28,14.76 7.2,11.34 8.46,9.18 C10.8,11.7 13.68,13.86 18.36,14.22 C17.1,9.18 23.94,6.48 26.64,9.9 C27.9,9.72 28.8,9.18 29.7,8.82 C29.34,10.08 28.62,10.8 27.72,11.52 C28.62,11.34 29.52,11.16 30.24,10.8 C30.06,11.7 29.16,12.42 28.26,13.14 L28.26,13.14 Z" id="Shape"></path>
                                </g>
                            </g>
                        </g>
                    </g>
                </g>
            </g>
        </g>
    </g>
</svg>