<?xml version="1.0" encoding="UTF-8"?>
<svg width="175px" height="24px" viewBox="0 0 175 24" version="1.1" xmlns="http://www.w3.org/2000/svg" xmlns:xlink="http://www.w3.org/1999/xlink">
    <!-- Generator: Sketch 41 (35326) - http://www.bohemiancoding.com/sketch -->
    <title>usa-today-logo</title>
    <desc>Created with Sketch.</desc>
    <defs></defs>
    <g id="Welcome" stroke="none" stroke-width="1" fill="none" fill-rule="evenodd">
        <g id="Trial" transform="translate(-1137.000000, -4339.000000)">
            <g id="Group-8" transform="translate(144.000000, 4313.000000)">
                <g id="usa-today-logo" transform="translate(993.000000, 26.000000)">
                    <g id="Group">
                        <path d="M145.919463,1.09228188 L141.057047,13.7298658 C141.139262,13.0604027 141.186242,12.3439597 141.186242,11.5805369 C141.186242,1.32718121 131.261745,1.09228188 131.261745,1.09228188 L121.642617,1.09228188 L121.642617,8.98489933 C120.233221,4.06375839 115.64094,0.645973154 110.17953,0.645973154 C106.209732,0.645973154 102.697987,2.45469799 100.536913,5.33221477 L100.536913,1.09228188 L85.8791946,1.09228188 L85.8791946,6.13087248 L90.295302,6.13087248 L90.295302,22.8909396 L96.1208054,22.8909396 L96.1208054,6.13087248 L99.9848993,6.13087248 C98.9043624,7.86912752 98.2818792,9.92449664 98.2818792,12.1560403 C98.2818792,18.7097315 103.602349,23.6778523 110.17953,23.6778523 C115.64094,23.6778523 120.233221,20.2483221 121.642617,15.3271812 L121.642617,22.8909396 L131.989933,22.8909396 C131.989933,22.8909396 136.194631,22.75 138.919463,19.238255 L137.521812,22.8909396 L143.47651,22.8909396 L144.885906,19.1795302 L152.719799,19.1795302 L154.129195,22.8909396 L160.083893,22.8909396 L151.686242,1.09228188 L145.919463,1.09228188" id="Shape" fill="#9B9B9B"></path>
                        <path d="M110.17953,17.9345638 C106.761745,17.9345638 103.978188,15.3506711 103.978188,12.1560403 C103.978188,8.9614094 106.761745,6.37751678 110.17953,6.37751678 C113.597315,6.37751678 116.380872,8.9614094 116.380872,12.1560403 C116.380872,15.3506711 113.597315,17.9345638 110.17953,17.9345638" id="Shape" fill="#FFFFFE"></path>
                        <path d="M127.86745,17.9932886 L127.86745,6.08389262 C128.278523,6.06040268 128.760067,5.94295302 129.64094,5.94295302 C130.545302,5.94295302 135.055369,6.13087248 135.055369,11.9681208 C135.055369,17.7936242 130.639262,18.1812081 129.54698,18.1812081 C128.442953,18.1812081 127.86745,17.9932886 127.86745,17.9932886 Z" id="Shape" fill="#FFFFFE"></path>
                        <polyline id="Shape" fill="#FFFFFE" points="146.553691 14.8104027 148.79698 8.9261745 148.808725 8.9261745 151.052013 14.8104027 146.553691 14.8104027"></polyline>
                        <polyline id="Shape" fill="#9B9B9B" points="167.553691 1.09228188 163.666107 6.84731544 159.790268 1.09228188 152.825503 1.09228188 160.436242 12.4496644 160.436242 22.8909396 166.895973 22.8909396 166.895973 12.4496644 174.518456 1.09228188 167.553691 1.09228188"></polyline>
                        <path d="M53.6040268,13.7298658 C53.6040268,13.7298658 56.3288591,14.0939597 55.8238255,16.1728188 C55.3305369,18.2516779 53.3808725,17.8171141 52.9580537,17.8171141 C52.5234899,17.8171141 50.9379195,17.8171141 48.1426174,15.5973154 L45.5587248,20.1191275 C45.5587248,20.1191275 48.4949664,23.1963087 54.0268456,23.1963087 C56.5402685,23.1963087 58.466443,22.3741611 59.8288591,21.0704698 L59.135906,22.8791946 L65.3842282,22.8791946 L66.7936242,19.1795302 L74.4748322,19.1795302 L75.8842282,22.8791946 L82.0620805,22.8791946 L73.8053691,0.916107383 L67.6862416,0.916107383 L62.283557,14.716443 C62.1778523,10.5469799 58.1258389,9.39597315 55.8942953,8.7852349 C52.7348993,7.92785235 52.9580537,7 52.9580537,6.63590604 C52.9580537,6.28355705 53.3104027,4.99161074 55.1073826,4.99161074 C56.9043624,4.99161074 59.2063758,6.63590604 59.2063758,6.63590604 L61.5788591,2.26677852 C61.5788591,2.26677852 58.7718121,0.117449664 54.4614094,0.117449664 C51.3724832,0.117449664 46.7097315,1.32718121 46.7097315,7.64597315 C46.7097315,7.64597315 46.0520134,12.942953 53.6040268,13.7298658" id="Shape" fill="#9B9B9B"></path>
                        <polyline id="Shape" fill="#FFFFFE" points="70.7751678 8.9261745 72.807047 14.4463087 68.5318792 14.4463087 70.7751678 8.9261745"></polyline>
                        <path d="M1.46812081,11.2281879 C1.08053691,11.2281879 0.751677852,11.545302 0.751677852,11.9446309 C0.751677852,12.3439597 1.08053691,12.6610738 1.46812081,12.6610738 L6.43624161,12.6610738 C6.67114094,12.8489933 6.98825503,13.0134228 7.44630872,13.1661074 C7.61073826,13.2130872 7.75167785,13.2718121 7.88087248,13.3305369 L1.63255034,13.3305369 C1.23322148,13.3305369 0.916107383,13.659396 0.916107383,14.0469799 C0.916107383,14.4463087 1.23322148,14.7634228 1.63255034,14.7634228 L8.87919463,14.7634228 C8.90268456,14.9865772 8.8909396,15.2097315 8.86744966,15.4446309 L2.51342282,15.4446309 C2.11409396,15.4446309 1.7852349,15.761745 1.7852349,16.1610738 C1.7852349,16.5486577 2.11409396,16.8775168 2.51342282,16.8775168 L8.70302013,16.8775168 C8.70302013,17.1006711 8.72651007,17.3238255 8.7852349,17.5469799 L3.6057047,17.5469799 C3.20637584,17.5469799 2.87751678,17.864094 2.87751678,18.2634228 C2.87751678,18.6627517 3.20637584,18.9798658 3.6057047,18.9798658 L9.78355705,18.9798658 C9.98322148,19.1912752 10.159396,19.4261745 10.3238255,19.6610738 L5.55536913,19.6610738 C5.15604027,19.6610738 4.83892617,19.9781879 4.83892617,20.3775168 C4.83892617,20.7651007 5.15604027,21.0939597 5.55536913,21.0939597 L11.1342282,21.0939597 C11.2634228,21.340604 11.3691275,21.5755034 11.4513423,21.7634228 L8.72651007,21.7634228 C8.32718121,21.7634228 8.01006711,22.0805369 8.01006711,22.4798658 C8.01006711,22.8791946 8.32718121,23.1963087 8.72651007,23.1963087 L15.7734899,23.1963087 C15.9731544,23.1963087 16.1493289,23.114094 16.2785235,22.9848993 L33.8020134,22.9848993 C34.647651,23.1610738 35.5872483,23.2667785 36.6442953,23.2667785 C45.7348993,23.2550336 46.4865772,15.738255 46.4865772,15.738255 L46.4865772,0.916107383 L40.3087248,0.916107383 L40.3087248,14.6694631 C40.3087248,14.6694631 40.2734899,17.864094 36.6442953,17.8875839 C33.0151007,17.864094 32.9798658,14.6694631 32.9798658,14.6694631 L32.9798658,0.916107383 L16.2315436,0.916107383 C16.102349,0.810402685 15.9496644,0.681208054 15.7734899,0.681208054 L8.72651007,0.681208054 C8.32718121,0.681208054 8.01006711,1.01006711 8.01006711,1.40939597 C8.01006711,1.5385906 8.04530201,1.65604027 8.11577181,1.76174497 C7.92785235,1.98489933 7.75167785,2.18456376 7.64597315,2.26677852 C7.55201342,2.32550336 7.22315436,2.51342282 6.7885906,2.79530201 L5.55536913,2.79530201 C5.15604027,2.79530201 4.83892617,3.11241611 4.83892617,3.51174497 C4.83892617,3.75838926 4.95637584,3.96979866 5.1442953,4.09899329 C4.89765101,4.34563758 4.66275168,4.61577181 4.45134228,4.89765101 L3.6057047,4.89765101 C3.20637584,4.89765101 2.87751678,5.22651007 2.87751678,5.61409396 C2.87751678,6.01342282 3.20637584,6.33053691 3.6057047,6.33053691 L3.79362416,6.33053691 C3.7466443,6.55369128 3.7114094,6.76510067 3.7114094,7 L3.72315436,7.01174497 L2.51342282,7.01174497 C2.11409396,7.01174497 1.7852349,7.32885906 1.7852349,7.72818792 C1.7852349,8.12751678 2.11409396,8.44463087 2.51342282,8.44463087 L4.14597315,8.44463087 L3.88758389,9.11409396 L1.63255034,9.11409396 C1.23322148,9.11409396 0.916107383,9.44295302 0.916107383,9.83053691 C0.916107383,10.2298658 1.23322148,10.5469799 1.63255034,10.5469799 L4.76845638,10.5469799 C4.94463087,10.8053691 5.13255034,11.0402685 5.2852349,11.2281879 L1.46812081,11.2281879" id="Shape" fill="#9B9B9B"></path>
                        <path d="M9.43120805,12.6610738 L23.2315436,12.6610738 C23.442953,12.6610738 23.6308725,12.5671141 23.7718121,12.4261745 L26.9077181,12.4261745 L26.9077181,13.5302013 L23.6778523,13.5302013 C23.5486577,13.4127517 23.3724832,13.3305369 23.1845638,13.3305369 L10.1828859,13.3305369 C9.92449664,13.1308725 9.66610738,12.9077181 9.43120805,12.6610738" id="Shape" fill="#FFFFFE"></path>
                        <path d="M23.1845638,10.5469799 C23.3959732,10.5469799 23.5838926,10.4530201 23.7130872,10.3120805 L26.9077181,10.3120805 L26.9077181,11.4161074 L23.7248322,11.4161074 C23.5956376,11.2986577 23.4312081,11.2281879 23.2315436,11.2281879 L12.0033557,11.2281879 C12.0151007,11.0285235 12.0620805,10.7818792 12.1560403,10.5469799 L23.1845638,10.5469799" id="Shape" fill="#FFFFFE"></path>
                        <path d="M21.6694631,5.08557047 C21.5402685,4.96812081 21.3758389,4.89765101 21.1996644,4.89765101 L13.8590604,4.89765101 C13.8003356,4.72147651 13.7416107,4.49832215 13.6946309,4.22818792 L19.2030201,4.22818792 C19.4261745,4.22818792 19.614094,4.12248322 19.7550336,3.96979866 L26.9077181,3.96979866 L26.9077181,5.08557047 L21.6694631,5.08557047" id="Shape" fill="#FFFFFE"></path>
                        <path d="M12.1912752,15.1744966 C12.1912752,15.1744966 12.1442953,14.9983221 11.9916107,14.7634228 L23.1845638,14.7634228 C23.3842282,14.7634228 23.5721477,14.6812081 23.7013423,14.5402685 L26.9077181,14.5402685 L26.9077181,15.6442953 L22.8322148,15.6442953 C22.7030201,15.5151007 22.5268456,15.4446309 22.3389262,15.4446309 L14.2583893,15.4446309 C13.6828859,15.2919463 12.966443,15.1862416 12.1912752,15.1744966" id="Shape" fill="#FFFFFE"></path>
                        <path d="M15.0100671,16.8775168 L22.3389262,16.8775168 C22.5385906,16.8775168 22.7265101,16.783557 22.8557047,16.6543624 L27.0604027,16.6543624 C27.1308725,16.9597315 27.2483221,17.3355705 27.4127517,17.7583893 L21.704698,17.7583893 C21.5755034,17.6291946 21.3993289,17.5469799 21.1996644,17.5469799 L14.7516779,17.5469799 C14.8104027,17.3590604 14.9043624,17.1124161 15.0100671,16.8775168" id="Shape" fill="#FFFFFE"></path>
                        <path d="M14.4697987,18.9798658 L21.1996644,18.9798658 C21.3993289,18.9798658 21.5872483,18.897651 21.716443,18.7567114 L27.8825503,18.7567114 C28.0822148,19.1208054 28.3171141,19.4966443 28.5989933,19.8724832 L19.7197987,19.8724832 C19.5788591,19.7432886 19.4026846,19.6610738 19.2030201,19.6610738 L14.0469799,19.6610738 C14.1644295,19.4379195 14.3053691,19.2147651 14.4697987,18.9798658" id="Shape" fill="#FFFFFE"></path>
                        <path d="M16.2902685,21.9865772 C16.1610738,21.8456376 15.9731544,21.7634228 15.7734899,21.7634228 L13.5654362,21.7634228 C13.5536913,21.5637584 13.5654362,21.340604 13.5889262,21.0939597 L19.2030201,21.0939597 C19.4026846,21.0939597 19.590604,21.011745 19.7197987,20.8708054 L29.5268456,20.8708054 C29.9614094,21.2701342 30.4781879,21.6459732 31.0654362,21.9865772 L16.2902685,21.9865772" id="Shape" fill="#FFFFFE"></path>
                        <path d="M26.9077181,2.97147651 L19.6728188,2.97147651 C19.5436242,2.86577181 19.3791946,2.79530201 19.2030201,2.79530201 L12.7902685,2.79530201 C12.7550336,2.66610738 12.6963087,2.41946309 12.6845638,2.12583893 L15.7734899,2.12583893 C15.9966443,2.12583893 16.1845638,2.02013423 16.3255034,1.8557047 L26.9077181,1.8557047 L26.9077181,2.97147651" id="Shape" fill="#FFFFFE"></path>
                        <path d="M10.6644295,2.12583893 L11.1342282,2.12583893 C11.1577181,2.32550336 11.204698,2.56040268 11.2986577,2.79530201 L10.7818792,2.79530201 C10.7114094,2.57214765 10.6761745,2.33724832 10.6644295,2.12583893" id="Shape" fill-opacity="0.4" fill="#FFFEFE"></path>
                        <path d="M11.3573826,4.22818792 L12.614094,4.22818792 C12.6728188,4.38087248 12.7550336,4.60402685 12.8255034,4.89765101 L11.7449664,4.89765101 C11.6157718,4.73322148 11.4865772,4.51006711 11.3573826,4.22818792" id="Shape" fill-opacity="0.4" fill="#FFFEFE"></path>
                        <path d="M15.7030201,6.33053691 L21.1996644,6.33053691 C21.4228188,6.33053691 21.6107383,6.23657718 21.7399329,6.08389262 L26.9077181,6.08389262 L26.9077181,7.19966443 L22.8087248,7.19966443 C22.6795302,7.08221477 22.5151007,7.01174497 22.3389262,7.01174497 L15.2449664,7.01174497 L15.7030201,6.33053691" id="Shape" fill="#FFFFFE"></path>
                        <path d="M14.5050336,8.44463087 L22.3389262,8.44463087 C22.5503356,8.44463087 22.738255,8.35067114 22.8674497,8.19798658 L26.9077181,8.19798658 L26.9077181,9.30201342 L23.6661074,9.30201342 C23.5369128,9.19630872 23.3724832,9.11409396 23.1845638,9.11409396 L13.8825503,9.11409396 C14.1057047,8.9261745 14.3171141,8.70302013 14.5050336,8.44463087" id="Shape" fill="#FFFFFE"></path>
                        <path d="M8.42114094,10.5469799 L10.3708054,10.5469799 C10.5587248,10.7466443 10.7114094,10.9697987 10.8053691,11.2281879 L8.65604027,11.2281879 C8.55033557,11.0520134 8.43288591,10.8053691 8.42114094,10.5469799" id="Shape" fill-opacity="0.4" fill="#FFFEFE"></path>
                    </g>
                </g>
            </g>
        </g>
    </g>
</svg>