<?xml version="1.0" encoding="UTF-8"?>
<svg width="146px" height="167px" viewBox="0 0 146 167" version="1.1" xmlns="http://www.w3.org/2000/svg" xmlns:xlink="http://www.w3.org/1999/xlink">
    <!-- Generator: Sketch 41 (35326) - http://www.bohemiancoding.com/sketch -->
    <title>Group 6</title>
    <desc>Created with Sketch.</desc>
    <defs>
        <path d="M53.4857143,3.43571429 L11.5142857,27.5785714 C4.45714286,31.6642857 0,39.2785714 0,47.45 L0,95.9214286 C0,104.092857 4.45714286,111.707143 11.5142857,115.792857 L53.4857143,139.935714 C60.5428571,144.021429 69.4571429,144.021429 76.5142857,139.935714 L118.485714,115.792857 C125.542857,111.707143 130,104.092857 130,95.9214286 L130,47.6357143 C130,39.4642857 125.542857,31.85 118.485714,27.7642857 L76.5142857,3.62142857 C69.4571429,-0.835714286 60.5428571,-0.835714286 53.4857143,3.43571429 Z" id="path-1"></path>
        <filter x="-50%" y="-50%" width="200%" height="200%" filterUnits="objectBoundingBox" id="filter-2">
            <feOffset dx="0" dy="8" in="SourceAlpha" result="shadowOffsetOuter1"></feOffset>
            <feGaussianBlur stdDeviation="4" in="shadowOffsetOuter1" result="shadowBlurOuter1"></feGaussianBlur>
            <feColorMatrix values="0 0 0 0 0   0 0 0 0 0   0 0 0 0 0  0 0 0 0.1 0" type="matrix" in="shadowBlurOuter1" result="shadowMatrixOuter1"></feColorMatrix>
            <feOffset dx="0" dy="0" in="SourceAlpha" result="shadowOffsetOuter2"></feOffset>
            <feGaussianBlur stdDeviation="4" in="shadowOffsetOuter2" result="shadowBlurOuter2"></feGaussianBlur>
            <feColorMatrix values="0 0 0 0 0   0 0 0 0 0   0 0 0 0 0  0 0 0 0.1 0" type="matrix" in="shadowBlurOuter2" result="shadowMatrixOuter2"></feColorMatrix>
            <feMerge>
                <feMergeNode in="shadowMatrixOuter1"></feMergeNode>
                <feMergeNode in="shadowMatrixOuter2"></feMergeNode>
            </feMerge>
        </filter>
    </defs>
    <g id="Welcome" stroke="none" stroke-width="1" fill="none" fill-rule="evenodd">
        <g id="Trial" transform="translate(-842.000000, -2811.000000)">
            <g id="Group-13" transform="translate(0.000000, 2657.000000)">
                <g id="Group-4" transform="translate(850.000000, 162.000000)">
                    <g id="Group-6">
                        <g id="Shape-Copy">
                            <use fill="black" fill-opacity="1" filter="url(#filter-2)" xlink:href="#path-1"></use>
                            <use fill="#FFD86A" fill-rule="evenodd" xlink:href="#path-1"></use>
                        </g>
                        <g id="mountain" transform="translate(29.649123, 32.385965)">
                            <g id="mountain-copy-3" transform="translate(0.228070, 21.053887)">
                                <g id="Layer_1">
                                    <g id="Group">
                                        <g id="Shape">
                                            <path d="M0.118632025,46.3590541 L25.3613608,5.63935058 C30.4615113,-1.85028545 38.807134,-1.85028545 43.9072844,5.63935058 L70.626028,46.3590541 L0.118632025,46.3590541 Z" fill="#273B6D"></path>
                                            <path d="M43.9070698,5.63935058 C38.8069193,-1.85028545 30.4612966,-1.85028545 25.3611461,5.63935058 L22.0600765,10.9645447 C25.1934953,14.4198474 29.764719,16.6010728 34.8601469,16.6010728 C39.8742179,16.6010728 44.3823311,14.4909675 47.5108126,11.1317503 L43.9070698,5.63935058 Z" fill="#FFFFFF"></path>
                                            <path d="M25.3521303,5.63053924 L0.109616228,46.3502428 L34.8513457,46.3502428 L34.8513457,0.0210745866 C31.4148245,-0.0647310475 27.959413,1.80159394 25.3521303,5.63053924 Z" fill="#222222" opacity="0.2"></path>
                                        </g>
                                    </g>
                                </g>
                            </g>
                            <path d="M35.521712,0.710512715 C35.9561471,0.487510457 36.903579,0.114275178 38.368698,0.114275178 C39.5893373,0.114275178 40.9134555,0.374248836 42.3038235,0.887740817 C43.7607345,1.4258804 45.1546202,1.69876473 46.4464929,1.69876473 C47.918061,1.69876473 48.9250005,1.34372171 49.4119078,1.10370087 L49.4359454,8.4733377 C49.0882801,8.67580027 48.100981,9.14645232 46.4473723,9.14645232 C45.2261467,9.14645232 43.9020285,8.88647867 42.5113674,8.37298668 C41.0544564,7.8348471 39.6605706,7.56196277 38.3684049,7.56196277 C36.9328931,7.56196277 35.9417832,7.89822665 35.4041625,8.14763706 L35.4041625,1.80791843 L35.4041625,0.912975288 C35.4041625,0.824948077 35.449013,0.747484175 35.521712,0.710512715 Z" id="Path-Copy" stroke="#14244C" stroke-width="2" fill="#273B6D"></path>
                            <rect id="Rectangle-2-Copy" fill="#4A4A4A" x="34.1150957" y="0.436852933" width="0.966800143" height="20.9675541"></rect>
                        </g>
                        <g id="Group-5" transform="translate(68.877193, 34.666667)" fill="#FFFFFF">
                            <path d="M2.73714592,0.574598142 C2.73714592,0.893116202 2.73208338,1.19096223 2.71647389,1.36857296 C2.71098947,1.4259484 2.68483302,1.44704231 2.62239505,1.44704231 L2.0477969,1.44704231 C1.98999959,1.44704231 1.9587806,1.41582332 1.94823364,1.36351042 C1.92756161,1.24327513 1.9064677,1.04457049 1.90140516,0.866959752 C1.31119752,0.866959752 1.14919628,1.1023678 1.14919628,1.79171682 L1.14919628,1.99042147 C1.14919628,2.67977049 1.34747905,2.91475666 1.91701465,2.91475666 C2.16761032,2.91475666 2.4916128,2.89408462 2.70044252,2.86286563 C2.75275542,2.85738122 2.78945882,2.89914716 2.78945882,2.95146006 L2.78945882,3.49483922 C2.78945882,3.56276161 2.76330237,3.58891806 2.68483302,3.62013705 C2.4392999,3.72476285 2.05792198,3.78213829 1.64532508,3.78213829 C0.422721981,3.78213829 2.22044605e-16,3.19699319 2.22044605e-16,2.0477969 L2.22044605e-16,1.73434138 C2.22044605e-16,0.585145098 0.39698741,0 1.61916863,0 C2.00603096,0 2.39247141,0.0679223942 2.63252012,0.156516821 C2.70592693,0.182673271 2.73714592,0.219376677 2.73714592,0.281814654 L2.73714592,0.574598142 Z" id="Fill-7263"></path>
                            <path d="M6.82401247,1.03073849 C6.82401247,1.34925655 6.81894993,1.64710258 6.80334043,1.82471331 C6.79785602,1.88208875 6.77169957,1.90318266 6.70926159,1.90318266 L6.13466345,1.90318266 C6.07686613,1.90318266 6.04564714,1.87196367 6.03510019,1.81965077 C6.01442815,1.71502497 5.99881866,1.5479612 5.9882717,1.38595996 L5.78956706,1.38595996 L5.78956706,3.37638142 C5.8992554,3.38692838 6.01442815,3.40253787 6.108507,3.41814737 C6.16039802,3.42869432 6.19203889,3.45991331 6.19203889,3.51728875 L6.19203889,4.09737131 C6.19203889,4.14419979 6.16039802,4.17541878 6.11356954,4.17541878 L4.3163683,4.17541878 C4.26953981,4.17541878 4.23832083,4.14419979 4.23832083,4.09737131 L4.23832083,3.51728875 C4.23832083,3.45991331 4.26953981,3.42869432 4.32185271,3.41814737 C4.41044714,3.40253787 4.5256199,3.38692838 4.64037077,3.37638142 L4.64037077,1.38595996 L4.43660359,1.38595996 C4.43154105,1.5479612 4.41044714,1.71502497 4.39483765,1.81965077 C4.38429069,1.87196367 4.3530717,1.90318266 4.29569626,1.90318266 L3.72109812,1.90318266 C3.65823827,1.90318266 3.63208182,1.88208875 3.62701928,1.82471331 C3.61140978,1.64710258 3.60592537,1.34925655 3.60592537,1.03073849 L3.60592537,0.623204128 C3.60592537,0.544734778 3.64262877,0.518578328 3.71603558,0.518578328 L6.71432413,0.518578328 C6.78730906,0.518578328 6.82401247,0.544734778 6.82401247,0.623204128 L6.82401247,1.03073849 Z" id="Fill-7264"></path>
                        </g>
                        <path d="M65.2280702,130.016987 C63.4878687,130.016987 61.7712506,129.556491 60.2631587,128.68639 L18.1929816,104.398044 C15.1308725,102.630535 13.2280702,99.3350752 13.2280702,95.798817 L13.2280702,47.2208822 C13.2280702,43.684624 15.1308725,40.3891641 18.1929816,38.6216556 L60.2631587,14.3320676 C63.2793424,12.5918661 67.1767979,12.5918661 70.1929816,14.3320676 L112.263159,38.6204144 C115.325268,40.3879228 117.22807,43.6833828 117.22807,47.219641 L117.22807,95.7975758 C117.22807,99.333834 115.325268,102.629294 112.263159,104.396802 L70.1929816,128.68639 C68.6848898,129.556491 66.9682716,130.016987 65.2280702,130.016987 Z M65.2280702,17.9663828 C64.3579694,17.9663828 63.4990398,18.1960099 62.7456145,18.6316809 L20.6754373,42.9200277 C19.1450034,43.8037819 18.1929816,45.4521325 18.1929816,47.219641 L18.1929816,95.7975758 C18.1929816,97.5663255 19.1450034,99.2134349 20.6754373,100.097189 L62.7456145,124.386777 C64.2537063,125.256878 66.202434,125.256878 67.7105259,124.386777 L109.780703,100.09843 C111.311137,99.2146761 112.263159,97.5663255 112.263159,95.798817 L112.263159,47.2208822 C112.263159,45.4521325 111.311137,43.8050231 109.780703,42.9212689 L67.7105259,18.6316809 C66.9571006,18.1960099 66.0981709,17.9663828 65.2280702,17.9663828 Z" id="Shape-Copy-2" fill="#273B6D"></path>
                    </g>
                </g>
            </g>
        </g>
    </g>
</svg>