<?xml version="1.0" encoding="UTF-8"?>
<svg width="120px" height="120px" viewBox="0 0 120 120" version="1.1" xmlns="http://www.w3.org/2000/svg" xmlns:xlink="http://www.w3.org/1999/xlink">
    <!-- Generator: Sketch 41 (35326) - http://www.bohemiancoding.com/sketch -->
    <title>make your website</title>
    <desc>Created with Sketch.</desc>
    <defs>
        <circle id="path-1" cx="60" cy="60" r="60"></circle>
    </defs>
    <g id="Page-1" stroke="none" stroke-width="1" fill="none" fill-rule="evenodd">
        <g id="Trial" transform="translate(-223.000000, -1488.000000)">
            <g id="Group-11" transform="translate(197.000000, 1488.000000)">
                <g id="make-your-website" transform="translate(26.000000, 0.000000)">
                    <g id="Layer_1">
                        <g id="browser-(1)">
                            <mask id="mask-2" fill="white">
                                <use xlink:href="#path-1"></use>
                            </mask>
                            <use id="Mask" fill="#C5CAE9" xlink:href="#path-1"></use>
                            <g mask="url(#mask-2)" id="Capa_1">
                                <g transform="translate(9.923077, 14.230769)">
                                    <g>
                                        <rect id="Rectangle-path" fill="#ECF0F1" x="0" y="0" width="99.9476714" height="99.9476714"></rect>
                                        <rect id="Rectangle-path" fill="#757575" x="0" y="0" width="99.9476714" height="20.6788286"></rect>
                                        <ellipse id="Oval" fill="#ED7161" cx="10.3394143" cy="10.3394143" rx="5.16970714" ry="5.16970714"></ellipse>
                                        <ellipse id="Oval" fill="#F0C419" cx="25.8485357" cy="10.3394143" rx="5.16970714" ry="5.16970714"></ellipse>
                                        <ellipse id="Oval" fill="#4FBA6F" cx="41.3576571" cy="10.3394143" rx="5.16970714" ry="5.16970714"></ellipse>
                                        <rect id="Rectangle-path" fill="#FF9800" x="8.61617857" y="29.2950071" width="82.7153142" height="20.6788286"></rect>
                                        <rect id="Rectangle-path" fill="#C5CAE9" x="53.4203071" y="58.5900143" width="37.9111857" height="17.2323571"></rect>
                                        <path d="M91.3314928,84.43855 L53.4203071,84.43855 C52.469081,84.43855 51.6970714,83.6665404 51.6970714,82.7153142 C51.6970714,81.7640881 52.469081,80.9920785 53.4203071,80.9920785 L91.3314928,80.9920785 C92.2827189,80.9920785 93.0547285,81.7640881 93.0547285,82.7153142 C93.0547285,83.6665404 92.2827189,84.43855 91.3314928,84.43855 Z" id="Shape" fill="#C5CAE9"></path>
                                        <path d="M91.3314928,91.3314928 L53.4203071,91.3314928 C52.469081,91.3314928 51.6970714,90.5594832 51.6970714,89.6082571 C51.6970714,88.657031 52.469081,87.8850214 53.4203071,87.8850214 L91.3314928,87.8850214 C92.2827189,87.8850214 93.0547285,88.657031 93.0547285,89.6082571 C93.0547285,90.5594832 92.2827189,91.3314928 91.3314928,91.3314928 Z" id="Shape" fill="#C5CAE9"></path>
                                        <rect id="Rectangle-path" fill="#C5CAE9" x="8.61617857" y="58.5900143" width="37.9111857" height="17.2323571"></rect>
                                        <path d="M46.5273643,84.43855 L8.61617857,84.43855 C7.66495245,84.43855 6.89294285,83.6665404 6.89294285,82.7153142 C6.89294285,81.7640881 7.66495245,80.9920785 8.61617857,80.9920785 L46.5273643,80.9920785 C47.4785904,80.9920785 48.2506,81.7640881 48.2506,82.7153142 C48.2506,83.6665404 47.4785904,84.43855 46.5273643,84.43855 Z" id="Shape" fill="#C5CAE9"></path>
                                        <path d="M46.5273643,91.3314928 L8.61617857,91.3314928 C7.66495245,91.3314928 6.89294285,90.5594832 6.89294285,89.6082571 C6.89294285,88.657031 7.66495245,87.8850214 8.61617857,87.8850214 L46.5273643,87.8850214 C47.4785904,87.8850214 48.2506,88.657031 48.2506,89.6082571 C48.2506,90.5594832 47.4785904,91.3314928 46.5273643,91.3314928 Z" id="Shape" fill="#BDC3C7"></path>
                                    </g>
                                </g>
                            </g>
                        </g>
                    </g>
                </g>
            </g>
        </g>
    </g>
</svg>