<?xml version="1.0" encoding="UTF-8"?>
<svg width="120px" height="120px" viewBox="0 0 120 120" version="1.1" xmlns="http://www.w3.org/2000/svg" xmlns:xlink="http://www.w3.org/1999/xlink">
    <!-- Generator: Sketch 41 (35326) - http://www.bohemiancoding.com/sketch -->
    <title>Layer_1</title>
    <desc>Created with Sketch.</desc>
    <defs>
        <circle id="path-1" cx="60" cy="60" r="60"></circle>
    </defs>
    <g id="Page-1" stroke="none" stroke-width="1" fill="none" fill-rule="evenodd">
        <g id="Trial" transform="translate(-660.000000, -1488.000000)">
            <g id="Group-11-Copy" transform="translate(546.000000, 1488.000000)">
                <g id="handshake" transform="translate(114.000000, 0.000000)">
                    <g id="Layer_1">
                        <g>
                            <mask id="mask-2" fill="white">
                                <use xlink:href="#path-1"></use>
                            </mask>
                            <use id="Mask" fill="#C5CAE9" xlink:href="#path-1"></use>
                            <g mask="url(#mask-2)">
                                <g transform="translate(3.000000, 25.000000)">
                                    <path d="M0.0714930731,62.4656495 L114.46292,62.4656495 L114.46292,66.3849649 C114.46292,68.5405056 112.700327,70.3042803 110.543605,70.3042803 L3.9896263,70.3042803 C1.83408559,70.3042803 0.0703109185,68.540742 0.0703109185,66.3849649 L0.0703109185,62.4656495 L0.0714930731,62.4656495 Z" id="Shape" fill="#757575"></path>
                                    <path d="M41.5944372,62.4656495 L72.9387936,62.4656495 L72.9387936,63.6177774 C72.9387936,64.2511758 72.4212464,64.7699053 71.7866658,64.7699053 L42.7456193,64.7699053 C42.1122209,64.7699053 41.5934914,64.2511758 41.5934914,63.6177774 L41.5934914,62.4656495 L41.5944372,62.4656495 Z" id="Shape" fill="#666666"></path>
                                    <path d="M11.1043056,0.465186931 L103.429162,0.465186931 C104.556228,0.465186931 105.478781,1.38797682 105.478781,2.51480659 L105.478781,59.0825595 C105.478781,60.2096257 104.557174,61.1321791 103.429162,61.1321791 L11.1043056,61.1321791 C9.97723937,61.1321791 9.05468592,60.2093892 9.05468592,59.0825595 L9.05468592,2.51480659 C9.05444949,1.38774038 9.97629365,0.465186931 11.1043056,0.465186931 Z" id="Shape" fill="#757575"></path>
                                    <polygon id="Shape" fill="#FFFFFF" points="13.3636395 4.5809764 101.191579 4.5809764 101.191579 58.1063362 13.3636395 58.1063362"></polygon>
                                    <polygon id="Shape" fill="#ECF0F1" points="19.3150786 10.9932194 69.3414972 10.9932194 69.3414972 42.9248703 19.3150786 42.9248703"></polygon>
                                    <g id="Group" stroke-width="1" fill="none" transform="translate(72.871647, 10.795800)">
                                        <polygon id="Shape" fill="#C3CCCF" points="0.169757401 11.9170641 12.0662521 11.9170641 12.0662521 19.5109889 0.169757401 19.5109889"></polygon>
                                        <polygon id="Shape" fill="#C3CCCF" points="0.169757401 0.197419819 12.0662521 0.197419819 12.0662521 7.79016242 0.169757401 7.79016242"></polygon>
                                        <polygon id="Shape" fill="#C3CCCF" points="0.169757401 23.636472 12.0662521 23.636472 12.0662521 31.2292146 0.169757401 31.2292146"></polygon>
                                    </g>
                                    <g id="Group" stroke-width="1" fill="none" transform="translate(77.363835, 12.687247)">
                                        <polygon id="Shape" fill="#FFFFFF" points="0.1078125 0.0914987664 3.1426398 2.10399877 0.1078125 4.11649877 0.1078125 0.0924444901"></polygon>
                                        <polygon id="Shape" fill="#FFFFFF" points="0.1078125 11.8099609 3.1426398 13.8224609 0.1078125 15.8349609 0.1078125 11.8109067"></polygon>
                                        <polygon id="Shape" fill="#FFFFFF" points="0.1078125 23.5296053 3.1426398 25.5421053 0.1078125 27.5546053 0.1078125 23.530551"></polygon>
                                    </g>
                                    <polygon id="Shape" fill="#FF5B61" points="13.3636395 4.58192213 22.3082941 4.58192213 22.3082941 7.94326053 13.3636395 7.94326053"></polygon>
                                    <polygon id="Shape" fill="#F0B97D" points="41.4710202 28.3848415 42.6056522 28.3848415 46.0499779 28.3848415 47.185792 28.3848415 47.6487237 33.2016487 48.4698483 33.861291 50.2040691 34.9642412 46.8330371 42.9251067 41.8216473 42.9251067 38.4527431 34.9642412 40.1857817 33.861291 41.0080885 33.2016487"></polygon>
                                    <polygon id="Shape" fill="#F1F1F1" points="39.5861929 34.2173559 34.8500087 35.7286224 40.0512525 42.9251067 47.8503993 42.9251067 52.393183 35.2886244 49.0460305 34.227286 46.0998648 36.3076417 42.567114 36.3076417 39.5859565 34.2164102 39.5859565 34.2173559"></polygon>
                                    <polygon id="Shape" fill="#FF9800" points="43.2707324 36.1173148 43.675975 37.1164719 43.2161168 42.9260525 45.4404589 42.9260525 44.9806008 37.1164719 45.3858434 36.1173148 44.3275786 36.075703 43.2693138 36.1173148"></polygon>
                                    <path d="M39.6670523,34.1911121 L31.2900683,36.8644365 C31.2900683,36.8644365 30.2057961,37.4278514 29.879285,39.1424484 C29.6544392,40.3175101 29.5080885,41.5110134 29.3518076,42.924161 L42.6013964,42.924161 L39.6670523,34.1901664 L39.6670523,34.1911121 L39.6670523,34.1911121 Z M59.3050046,42.9251067 L59.3050046,42.9251067 C59.1489602,41.5119591 59.0014273,40.3184558 58.7775272,39.1433942 C58.4510161,37.4290336 57.3667439,36.8653822 57.3667439,36.8653822 L49.0455576,34.2282317 L46.0795317,42.9260525 L59.3050046,42.9260525 L59.3050046,42.9251067 L59.3050046,42.9251067 Z" id="Shape" fill="#273B6D"></path>
                                    <path d="M39.6670523,34.1911121 L37.8597743,34.7677671 L37.5124573,39.3521627 C37.5124573,39.3521627 37.6084483,39.7287971 37.8947661,39.6949875 L39.5261395,40.30758 C39.5261395,40.30758 39.6320605,40.4146832 39.5370153,40.5499217 L38.1425457,41.5065212 L38.8948689,42.9251067 L42.60116,42.9251067 L39.6670523,34.1911121 Z M49.7617069,42.9251067 L49.7617069,42.9251067 L50.5140301,41.5065212 L49.1183784,40.5499217 C49.0233331,40.4144468 49.1292542,40.30758 49.1292542,40.30758 L50.7596818,39.6949875 C51.0469454,39.7287971 51.1429363,39.3521627 51.1429363,39.3521627 L50.7968015,34.7831351 L49.0450848,34.227286 L46.0790589,42.9253432 L49.7617069,42.9253432 L49.7617069,42.9251067 Z" id="Shape" fill="#3F51B5"></path>
                                    <path d="M37.6741761,18.5916364 C37.6741761,19.0394365 37.5103294,19.4761244 37.5235696,19.9076109 C35.9924429,19.6224752 36.7317624,24.171879 37.5978089,24.7965294 C37.6666103,24.8466528 37.8358948,24.7352938 37.9789355,24.6447408 C38.2792028,26.317726 40.8444783,30.7874526 42.4746695,32.6689698 C42.9267254,33.1910093 45.6960408,33.1822614 46.1450231,32.6885936 C47.8146983,30.8496339 50.3766637,26.3276561 50.6790589,24.6447408 C50.8220996,24.7352938 50.9913841,24.8466528 51.0613677,24.7965294 C51.9274141,24.171879 52.6667336,19.6236573 51.135607,19.9076109 C51.1476649,19.4773066 50.9838183,19.0394365 50.9838183,18.5916364 C50.8996489,15.0600677 47.6990835,13.2974752 44.3289972,13.2811614 C40.960093,13.296293 37.7592912,15.0598313 37.6741761,18.5916364 Z" id="Shape" fill="#FED198"></path>
                                    <path d="M39.72616,14.0639842 C39.2433681,14.0081865 37.4985079,14.542284 37.2899758,16.3878637 C37.0814437,18.2334435 37.179799,19.9336183 37.179799,19.9336183 C37.179799,19.9336183 38.2018899,20.1925101 38.3307447,21.2396627 C38.4584174,22.2879974 38.3666822,22.2879974 38.3666822,22.2879974 L38.7357509,22.2050101 L39.0000807,20.408608 C40.528843,19.4498806 38.9892048,18.0324772 40.5179672,17.6993461 C44.6479425,20.6433839 48.2920523,20.1388403 49.9354836,18.7543008 C49.9354836,18.7543008 49.5522291,20.2033859 49.8482406,20.7188054 C50.14307,21.2354069 49.9671654,22.0489657 49.9671654,22.0489657 L50.351602,22.0302877 C50.351602,22.0302877 50.2816185,19.8976808 51.135607,19.9073744 C54.3754199,14.557652 44.119283,7.91276094 39.72616,14.0639842 Z" id="Shape" fill="#666666"></path>
                                    <g id="Group" stroke-width="1" fill="none" transform="translate(39.534887, 32.311013)">
                                        <path d="M1.43489926,0.202621299 C1.55382401,0.211369243 0.0359375,1.92478413 0.0359375,1.92478413 L1.32897821,6.34958882 L4.79387336,3.76468956 C2.88847656,2.82889597 1.75053454,1.61789679 1.43489926,0.202621299 Z" id="Shape" fill="#FFFFFF"></path>
                                        <path d="M8.15308388,0.202621299 C8.03415913,0.211369243 9.55204564,1.92478413 9.55204564,1.92478413 L8.25900493,6.34958882 L4.79292763,3.76468956 C6.69950658,2.82889597 7.8374486,1.61766036 8.15190173,0.202621299 L8.15308388,0.202621299 Z" id="Shape" fill="#FFFFFF"></path>
                                    </g>
                                    <path d="M42.4429877,28.535448 L43.3908393,27.8899916 C43.6814129,28.1618872 45.0363985,28.1576314 45.3269721,27.8866816 L46.2017665,28.535448 C46.6254507,28.8499012 47.0633208,28.9570044 47.1725519,29.4440521 L47.5198689,31.0011861 C47.6291,31.4903617 46.6625704,33.1316651 46.1308372,33.1316651 L42.3732406,33.1316651 C41.8415075,33.1316651 41.1097538,31.564601 41.1948689,31.0709332 L41.4743302,29.4438156 C41.5584997,28.95133 42.0072455,28.8321688 42.4439335,28.5352116 L42.4429877,28.5352116 L42.4429877,28.535448 Z M44.0842912,28.9002609 L44.0842912,28.9002609 L42.2453315,29.8656084 C42.2453315,29.8656084 42.3304466,30.934749 42.5697147,31.2688259 C42.8078006,31.604085 43.7435942,31.2054624 43.7435942,31.2054624 C43.7435942,31.2054624 43.7435942,30.3677877 44.0166719,30.3810278 L44.6292645,30.3810278 C44.9023422,30.3680241 44.9023422,31.2054624 44.9023422,31.2054624 C44.9023422,31.2054624 45.8381358,31.604085 46.0762217,31.2688259 C46.3143076,30.934749 46.4006049,29.8656084 46.4006049,29.8656084 L44.5616452,28.9002609 L44.3235593,28.9669345 L44.0854733,28.9002609 L44.0842912,28.9002609 Z" id="Shape" fill="#666666"></path>
                                    <polygon id="Shape" fill="#FF9800" points="19.3150786 45.1799484 69.3414972 45.1799484 69.3414972 42.9248703 19.3150786 42.9248703"></polygon>
                                    <path d="M19.3150786,38.7643954 C22.2361826,38.7643954 24.6038019,41.1317782 24.6038019,44.0531187 C24.6038019,46.973277 22.2352369,49.3418419 19.3150786,49.3418419 C16.3949203,49.3418419 14.0275375,46.9744591 14.0275375,44.0531187 C14.0275375,41.1320146 16.3951567,38.7643954 19.3150786,38.7643954 Z" id="Shape" fill="#ECF0F1"></path>
                                    <path d="M19.3150786,39.1084024 C22.0463286,39.1084024 24.2597949,41.3218687 24.2597949,44.0531187 C24.2597949,46.7843687 22.0463286,48.9966528 19.3150786,48.9966528 C16.5850108,48.9966528 14.3715445,46.7831865 14.3715445,44.0531187 C14.3715445,41.3218687 16.5850108,39.1084024 19.3150786,39.1084024 Z" id="Shape" fill="#FF5B61"></path>
                                    <polygon id="Shape" fill="#FFFFFF" points="17.458623 41.0892206 21.9283496 44.0528822 17.458623 47.0165438"></polygon>
                                    <g id="Group" stroke-width="1" fill="none" transform="translate(27.240480, 11.032231)">
                                        <polygon id="Shape" fill="#C8CACC" points="26.504852 34.1477179 42.1010177 34.1477179 42.1010177 31.8926398 26.504852 31.8926398"></polygon>
                                        <path d="M0.140203536,38.0944593 L35.5348581,38.0944593 L35.5348581,39.2094675 L0.140203536,39.2094675 L0.140203536,38.0944593 Z M0.140203536,41.4862973 L0.140203536,41.4862973 L21.745734,41.4862973 L21.745734,42.6013055 L0.140203536,42.6013055 L0.140203536,41.4862973 Z" id="Shape" fill="#C8CACC"></path>
                                        <path d="M60.2352693,0.104029605 L70.779852,0.104029605 L70.779852,1.21903783 L60.2352693,1.21903783 L60.2352693,0.104029605 Z M60.2352693,2.53595806 L60.2352693,2.53595806 L66.6716283,2.53595806 L66.6716283,3.65096628 L60.2352693,3.65096628 L60.2352693,2.53595806 Z" id="Shape" fill="#C8CACC"></path>
                                        <path d="M60.2352693,11.2886308 L70.779852,11.2886308 L70.779852,12.403639 L60.2352693,12.403639 L60.2352693,11.2886308 Z M60.2352693,13.7205592 L60.2352693,13.7205592 L66.6716283,13.7205592 L66.6716283,14.8355674 L60.2352693,14.8355674 L60.2352693,13.7205592 Z" id="Shape" fill="#C8CACC"></path>
                                        <path d="M60.2352693,23.4799548 L70.779852,23.4799548 L70.779852,24.594963 L60.2352693,24.594963 L60.2352693,23.4799548 Z M60.2352693,25.9118832 L60.2352693,25.9118832 L66.6716283,25.9118832 L66.6716283,27.0268914 L60.2352693,27.0268914 L60.2352693,25.9118832 Z" id="Shape" fill="#C8CACC"></path>
                                    </g>
                                    <polygon id="Shape" fill="#C3CCCF" points="73.0414047 46.0568707 84.9378993 46.0568707 84.9378993 53.6496133 73.0414047 53.6496133"></polygon>
                                    <polygon id="Shape" fill="#FFFFFF" points="77.4716473 47.8412149 80.5064746 49.8537149 77.4716473 51.8662149 77.4716473 47.8421606"></polygon>
                                    <path d="M87.4757488,46.136548 L98.0203315,46.136548 L98.0203315,47.2515562 L87.4757488,47.2515562 L87.4757488,46.136548 Z M87.4757488,48.5696586 L87.4757488,48.5696586 L93.9121078,48.5696586 L93.9121078,49.6846668 L87.4757488,49.6846668 L87.4757488,48.5696586 Z" id="Shape" fill="#C8CACC"></path>
                                    <polygon id="Shape" fill="#ECF0F1" points="101.191579 4.58192213 22.3082941 4.58192213 22.3082941 7.94326053 101.191579 7.94326053"></polygon>
                                    <path d="M21.3341987,61.1312334 L27.7204343,61.1312334 L27.7204343,62.4656495 L21.3341987,62.4656495 L21.3341987,61.1312334 Z M86.8139787,61.1312334 L86.8139787,61.1312334 L93.2002143,61.1312334 L93.2002143,62.4656495 L86.8139787,62.4656495 L86.8139787,61.1312334 Z" id="Shape" fill="#666666"></path>
                                </g>
                            </g>
                        </g>
                    </g>
                </g>
            </g>
        </g>
    </g>
</svg>