<?xml version="1.0" encoding="UTF-8"?>
<svg width="120px" height="120px" viewBox="0 0 120 120" version="1.1" xmlns="http://www.w3.org/2000/svg" xmlns:xlink="http://www.w3.org/1999/xlink">
    <!-- Generator: Sketch 41 (35326) - http://www.bohemiancoding.com/sketch -->
    <title>community_teamwork</title>
    <desc>Created with Sketch.</desc>
    <defs></defs>
    <g id="Page-1" stroke="none" stroke-width="1" fill="none" fill-rule="evenodd">
        <g id="Trial" transform="translate(-1096.000000, -1488.000000)">
            <g id="Group-10" transform="translate(1073.000000, 1488.000000)">
                <g id="community_teamwork" transform="translate(23.000000, 0.000000)">
                    <g id="Layer_1">
                        <circle id="Oval" fill="#C5CAE9" cx="60" cy="60" r="60"></circle>
                        <path d="M77.8582677,26.6456693 C77.8582677,26.6456693 78.6141732,34.015748 75.4015748,37.1338583 C72.1889764,40.3464567 72.5669291,43.2755906 72.5669291,43.2755906 C72.4724409,43.9370079 72,44.4094488 71.7165354,44.5984252 C70.8661417,45.1653543 69.5433071,44.976378 69.2598425,44.1259843 C68.5984252,42.3307087 68.8818898,40.0629921 69.5433071,37.7952756 L60.9448819,47.4330709 C60.1889764,48.2834646 58.9606299,48.3779528 58.1102362,47.6220472 C57.1653543,46.8661417 57.0708661,45.5433071 57.8267717,44.5984252 L65.1968504,36 C65.2913386,35.9055118 65.2913386,35.8110236 65.1968504,35.7165354 C65.1023622,35.6220472 65.007874,35.6220472 64.9133858,35.7165354 L56.6929134,45.1653543 C56.0314961,45.9212598 54.8976378,46.2047244 54.0472441,45.6377953 C53.9527559,45.6377953 53.9527559,45.5433071 53.8582677,45.5433071 L53.8582677,45.5433071 C53.007874,44.7874016 52.9133858,43.4645669 53.6692913,42.6141732 L61.511811,33.6377953 C61.6062992,33.5433071 61.6062992,33.4488189 61.511811,33.3543307 C61.4173228,33.2598425 61.3228346,33.2598425 61.2283465,33.3543307 L55.1811024,40.2519685 C54.4251969,41.1968504 53.007874,41.1968504 52.1574803,40.2519685 C51.496063,39.496063 51.5905512,38.3622047 52.2519685,37.6062992 L58.8661417,30.0472441 C58.9606299,29.9527559 58.9606299,29.8582677 58.8661417,29.7637795 C58.7716535,29.6692913 58.6771654,29.6692913 58.5826772,29.7637795 L54.3307087,34.488189 C53.6692913,35.2440945 52.4409449,35.3385827 51.6850394,34.6771654 C50.8346457,34.015748 50.7401575,32.6929134 51.496063,31.8425197 L56.976378,25.7952756 C59.3385827,23.2440945 61.984252,20.8818898 64.8188976,18.8976378 L67.2755906,17.1968504 C67.2755906,17.1968504 68.976378,16.0629921 70.9606299,14.4566929 L79.3700787,23.0551181 C78.519685,24.4724409 77.8582677,25.7952756 77.8582677,26.6456693 Z" id="Shape" fill="#FFFFFF"></path>
                        <path d="M78.1417323,2.83464567 L68.7874016,12.3779528 L80.976378,24.7559055 L94.488189,10.9606299 C89.5748031,7.46456693 84.0944882,4.72440945 78.1417323,2.83464567 Z" id="Shape" fill="#F96656"></path>
                        <path d="M68.5984252,88.0629921 L63.1181102,94.1102362 C60.7559055,96.7559055 58.1102362,99.023622 55.2755906,101.007874 L52.8188976,102.708661 C52.8188976,102.708661 51.1181102,103.84252 49.1338583,105.448819 L40.7244094,96.8503937 C41.6692913,95.4330709 42.3307087,94.1102362 42.2362205,93.2598425 C42.2362205,93.2598425 41.480315,85.8897638 44.6929134,82.7716535 C47.9055118,79.5590551 47.5275591,76.6299213 47.5275591,76.6299213 C47.6220472,75.9685039 48.0944882,75.496063 48.3779528,75.3070866 C49.2283465,74.7401575 50.5511811,74.9291339 50.8346457,75.7795276 C51.496063,77.5748031 51.2125984,79.8425197 50.5511811,82.1102362 L59.0551181,72.5669291 C59.8110236,71.7165354 61.0393701,71.6220472 61.8897638,72.3779528 C62.8346457,73.1338583 62.9291339,74.4566929 62.1732283,75.4015748 L54.8031496,84 C54.7086614,84.0944882 54.7086614,84.1889764 54.8031496,84.2834646 C54.8976378,84.3779528 54.992126,84.3779528 55.0866142,84.2834646 L63.3070866,74.8346457 C63.9685039,74.0787402 65.1023622,73.7952756 65.9527559,74.3622047 C66.0472441,74.3622047 66.0472441,74.4566929 66.1417323,74.4566929 L66.1417323,74.4566929 C66.992126,75.2125984 67.0866142,76.5354331 66.3307087,77.3858268 L58.488189,86.3622047 C58.3937008,86.4566929 58.3937008,86.5511811 58.488189,86.6456693 C58.5826772,86.7401575 58.6771654,86.7401575 58.7716535,86.6456693 L64.8188976,79.7480315 C65.5748031,78.8031496 66.992126,78.8031496 67.8425197,79.7480315 C68.503937,80.503937 68.4094488,81.6377953 67.7480315,82.3937008 L61.1338583,89.9527559 C61.0393701,90.0472441 61.0393701,90.1417323 61.1338583,90.2362205 C61.2283465,90.3307087 61.3228346,90.3307087 61.4173228,90.2362205 L65.5748031,85.511811 C66.2362205,84.7559055 67.4645669,84.6614173 68.2204724,85.3228346 C69.2598425,85.984252 69.3543307,87.2125984 68.5984252,88.0629921 Z" id="Shape" fill="#FFFFFF"></path>
                        <path d="M25.4173228,109.03937 C30.3307087,112.535433 35.9055118,115.275591 41.7637795,117.165354 L51.1181102,107.622047 L38.9291339,95.2440945 L25.4173228,109.03937 Z" id="Shape" fill="#FF9800"></path>
                        <path d="M105.543307,70.9606299 L96.9448819,79.3700787 C95.5275591,78.4251969 94.2047244,77.7637795 93.3543307,77.8582677 C93.3543307,77.8582677 85.984252,78.6141732 82.8661417,75.4015748 C79.6535433,72.1889764 76.7244094,72.5669291 76.7244094,72.5669291 C76.0629921,72.4724409 75.5905512,72 75.4015748,71.7165354 C74.8346457,70.8661417 75.023622,69.5433071 75.8740157,69.2598425 C77.6692913,68.5984252 79.9370079,68.8818898 82.2047244,69.5433071 L72.5669291,60.9448819 C71.7165354,60.1889764 71.6220472,58.9606299 72.3779528,58.1102362 C73.1338583,57.1653543 74.4566929,57.0708661 75.4015748,57.8267717 L84,65.1968504 C84.0944882,65.2913386 84.1889764,65.2913386 84.2834646,65.1968504 C84.3779528,65.1023622 84.3779528,65.007874 84.2834646,64.9133858 L74.8346457,56.6929134 C74.0787402,56.0314961 73.7952756,54.8976378 74.3622047,54.0472441 C74.3622047,53.9527559 74.4566929,53.9527559 74.4566929,53.8582677 L74.4566929,53.8582677 C75.2125984,53.007874 76.5354331,52.9133858 77.3858268,53.6692913 L86.3622047,61.511811 C86.4566929,61.6062992 86.5511811,61.6062992 86.6456693,61.511811 C86.7401575,61.4173228 86.7401575,61.3228346 86.6456693,61.2283465 L79.7480315,55.1811024 C78.8031496,54.4251969 78.8031496,53.007874 79.7480315,52.1574803 C80.503937,51.496063 81.6377953,51.5905512 82.3937008,52.2519685 L89.9527559,58.8661417 C90.0472441,58.9606299 90.1417323,58.9606299 90.2362205,58.8661417 C90.3307087,58.7716535 90.3307087,58.6771654 90.2362205,58.5826772 L85.511811,54.3307087 C84.7559055,53.6692913 84.6614173,52.4409449 85.3228346,51.6850394 C85.984252,50.8346457 87.3070866,50.7401575 88.1574803,51.496063 L94.2047244,56.976378 C96.8503937,59.3385827 99.1181102,61.984252 101.102362,64.8188976 L102.80315,67.2755906 C102.80315,67.2755906 103.937008,68.8818898 105.543307,70.9606299 Z" id="Shape" fill="#FFFFFF"></path>
                        <path d="M109.03937,94.5826772 C112.535433,89.6692913 115.275591,84.0944882 117.165354,78.2362205 L107.622047,68.8818898 L95.2440945,81.0708661 L109.03937,94.5826772 Z" id="Shape" fill="#303F9F"></path>
                        <path d="M47.7165354,61.984252 C46.9606299,62.9291339 45.6377953,63.023622 44.6929134,62.2677165 L36.0944882,54.8976378 C36,54.8031496 35.9055118,54.8031496 35.8110236,54.8976378 C35.7165354,54.992126 35.7165354,55.0866142 35.8110236,55.1811024 L45.2598425,63.4015748 C46.015748,64.0629921 46.2992126,65.1968504 45.7322835,66.0472441 C45.7322835,66.1417323 45.6377953,66.1417323 45.6377953,66.2362205 L45.6377953,66.2362205 C44.8818898,67.0866142 43.5590551,67.1811024 42.7086614,66.4251969 L33.7322835,58.5826772 C33.6377953,58.488189 33.5433071,58.488189 33.4488189,58.5826772 C33.3543307,58.6771654 33.3543307,58.7716535 33.4488189,58.8661417 L40.3464567,64.9133858 C41.2913386,65.6692913 41.2913386,67.0866142 40.3464567,67.9370079 C39.5905512,68.5984252 38.4566929,68.503937 37.7007874,67.8425197 L30.1417323,61.2283465 C30.0472441,61.1338583 29.9527559,61.1338583 29.8582677,61.2283465 C29.7637795,61.3228346 29.7637795,61.4173228 29.8582677,61.511811 L34.5826772,65.6692913 C35.3385827,66.3307087 35.4330709,67.5590551 34.7716535,68.3149606 C34.1102362,69.1653543 32.7874016,69.2598425 32.0314961,68.503937 L25.8897638,63.023622 C23.3385827,60.6614173 20.976378,58.015748 18.992126,55.1811024 L17.2913386,52.7244094 C17.2913386,52.7244094 16.1574803,51.023622 14.5511811,49.0393701 L23.1496063,40.6299213 C24.5669291,41.5748031 25.8897638,42.2362205 26.7401575,42.1417323 C26.7401575,42.1417323 34.1102362,41.3858268 37.2283465,44.5984252 C40.4409449,47.8110236 43.3700787,47.4330709 43.3700787,47.4330709 C44.0314961,47.5275591 44.503937,48 44.6929134,48.2834646 C45.2598425,49.1338583 45.0708661,50.4566929 44.2204724,50.7401575 C42.4251969,51.4015748 40.1574803,51.1181102 37.8897638,50.4566929 L47.4330709,59.0551181 C48.2834646,59.8110236 48.3779528,61.0393701 47.7165354,61.984252 Z" id="Shape" fill="#FFFFFF"></path>
                        <path d="M2.83464567,41.8582677 L12.3779528,51.2125984 L24.7559055,39.023622 L10.9606299,25.4173228 C7.46456693,30.4251969 4.72440945,35.9055118 2.83464567,41.8582677 Z" id="Shape" fill="#209665"></path>
                    </g>
                </g>
            </g>
        </g>
    </g>
</svg>